<?xml version="1.0" standalone="no"?>
<!DOCTYPE svg PUBLIC "-//W3C//DTD SVG 20010904//EN"
 "http://www.w3.org/TR/2001/REC-SVG-20010904/DTD/svg10.dtd">
<svg version="1.0" xmlns="http://www.w3.org/2000/svg"
 width="908.000000pt" height="1280.000000pt" viewBox="0 0 908.000000 1280.000000"
 preserveAspectRatio="xMidYMid meet">
<g transform="translate(0.000000,1280.000000) scale(0.100000,-0.100000)"
fill="#000000" stroke="none">
<path d="M4182 12788 c-14 -14 -16 -44 -3 -53 13 -8 43 24 39 43 -4 20 -21 25
-36 10z"/>
<path d="M4631 12642 c-13 -25 -14 -111 -2 -131 16 -25 106 -9 149 26 52 43
52 81 -1 99 -21 8 -60 16 -87 20 -42 5 -49 4 -59 -14z"/>
<path d="M3153 12633 c-31 -6 -73 -59 -73 -92 0 -28 20 -53 53 -64 22 -8 90
51 108 95 12 28 11 32 -10 49 -23 19 -34 20 -78 12z"/>
<path d="M2654 12607 c-3 -8 -4 -30 -2 -49 3 -33 3 -33 61 -36 l57 -3 0 34 c0
42 -17 57 -69 64 -31 4 -42 2 -47 -10z"/>
<path d="M3510 12574 c-57 -19 -91 -39 -88 -53 2 -9 54 -42 118 -74 l115 -58
54 14 c75 19 130 9 371 -73 113 -38 248 -81 300 -95 52 -15 140 -42 195 -61
113 -40 260 -74 321 -74 74 0 147 -19 174 -45 14 -13 45 -28 69 -34 27 -6 52
-19 65 -36 16 -20 29 -25 53 -23 22 1 59 -12 115 -40 151 -77 407 -116 616
-93 150 16 162 27 120 102 -26 46 -49 55 -173 64 -49 3 -133 15 -185 25 -52
10 -117 22 -145 25 -27 4 -88 21 -135 39 -106 41 -118 44 -231 56 -69 7 -101
15 -122 31 -20 15 -53 24 -104 30 -78 9 -98 18 -108 49 -8 25 -103 89 -156
104 -55 16 -101 5 -147 -35 -19 -17 -38 -26 -45 -22 -7 4 -36 33 -65 65 -58
62 -79 71 -192 83 -95 9 -136 22 -198 63 -52 35 -59 37 -121 33 -36 -3 -122
-5 -191 -5 -111 -1 -130 2 -167 22 -40 21 -80 26 -113 16z"/>
<path d="M3230 12475 c0 -21 24 -29 49 -15 32 16 25 30 -14 30 -25 0 -35 -4
-35 -15z"/>
<path d="M5177 12432 c-21 -22 -23 -95 -4 -111 42 -34 147 -13 147 30 0 29
-74 99 -104 99 -13 0 -30 -8 -39 -18z"/>
<path d="M2867 12412 c-9 -10 -17 -23 -17 -29 0 -6 -7 -16 -16 -24 -13 -11
-34 -10 -125 5 -148 25 -164 21 -238 -62 l-60 -67 -34 37 c-38 41 -71 53 -125
44 -106 -17 -152 -130 -63 -157 32 -9 48 -8 92 6 43 15 72 17 155 12 57 -4
114 -3 127 2 13 5 34 25 48 45 13 20 28 36 34 36 5 0 72 -40 150 -88 77 -49
149 -92 159 -95 13 -5 37 2 71 20 50 26 54 26 85 11 30 -15 36 -14 89 4 66 24
152 19 232 -12 82 -33 122 -23 142 33 4 9 13 17 21 17 26 0 119 -45 154 -75
l33 -28 27 25 c77 72 107 70 166 -11 43 -59 71 -81 102 -81 12 0 39 -12 60
-26 28 -20 62 -30 124 -38 58 -9 99 -21 131 -39 26 -16 61 -27 81 -27 19 0 46
-8 59 -19 65 -50 161 -79 260 -79 35 1 89 -10 150 -29 52 -17 130 -41 174 -53
44 -12 131 -49 194 -82 98 -52 124 -61 180 -66 36 -2 72 -9 79 -15 7 -5 95
-16 195 -23 240 -16 307 -31 377 -83 31 -23 47 -27 137 -31 86 -4 106 -9 133
-29 18 -13 43 -23 56 -23 32 0 94 48 94 73 0 28 -74 104 -127 130 -25 12 -67
37 -94 54 -30 21 -67 36 -98 40 -28 4 -67 15 -88 26 -20 10 -53 19 -73 19 -61
0 -270 30 -365 52 -49 12 -118 22 -153 24 -49 1 -71 7 -100 27 -66 46 -130 68
-319 108 -142 30 -198 46 -240 70 -53 30 -58 31 -133 25 -88 -8 -105 -3 -160
50 -19 18 -51 40 -70 49 -19 8 -48 25 -63 38 -22 17 -41 22 -80 21 -29 0 -62
-4 -73 -8 -18 -6 -33 2 -77 42 -30 28 -68 53 -83 56 -16 3 -96 10 -179 15 -82
6 -169 16 -191 25 -23 8 -68 17 -100 20 -138 15 -143 17 -220 69 l-76 51 -18
-21 c-9 -12 -20 -44 -24 -72 -8 -58 -20 -70 -47 -45 -19 17 -20 16 -47 -9 -35
-34 -78 -35 -121 -4 -17 12 -49 35 -70 50 -21 16 -60 36 -87 45 -39 14 -49 23
-59 52 -14 41 -34 48 -58 22z"/>
<path d="M3079 12029 c-23 -18 -31 -19 -89 -10 -36 6 -142 14 -236 17 l-172 7
-54 -51 c-30 -29 -60 -52 -66 -52 -6 0 -15 -8 -21 -17 -13 -23 4 -53 30 -53
11 0 43 -12 72 -27 47 -25 61 -28 152 -26 55 1 135 8 178 16 42 8 77 10 77 6
0 -19 -169 -89 -250 -104 -164 -31 -153 -26 -180 -80 -31 -62 -52 -65 -64 -7
-10 49 -28 57 -106 50 -75 -7 -100 -29 -100 -84 0 -58 -20 -67 -61 -28 -41 39
-100 39 -166 -2 -53 -32 -116 -116 -111 -147 4 -27 30 -41 60 -34 32 8 93 68
118 116 10 21 26 41 34 44 22 9 46 -20 46 -54 0 -37 10 -37 96 0 55 23 229 61
281 61 6 0 30 -16 54 -35 24 -19 53 -35 64 -35 44 0 348 61 402 81 32 12 72
32 90 45 40 30 48 30 85 -1 43 -36 80 -33 130 13 l41 37 109 -3 c61 -2 123 1
142 8 27 9 55 6 152 -15 66 -14 131 -24 147 -21 15 3 51 21 79 41 29 19 61 35
71 35 16 0 18 -5 12 -39 -6 -36 -4 -41 27 -64 58 -44 158 -91 191 -90 18 1 62
2 98 3 74 2 141 -13 179 -40 14 -9 42 -20 62 -24 21 -4 72 -23 113 -43 76 -36
77 -36 144 -24 56 9 77 8 112 -3 95 -31 207 -76 279 -110 41 -20 83 -36 93
-36 9 0 44 -13 76 -30 34 -17 97 -36 148 -45 183 -34 227 -46 380 -106 109
-43 174 -62 209 -64 28 -1 70 -11 96 -24 36 -17 75 -24 170 -30 68 -5 160 -16
205 -26 76 -17 83 -17 107 -2 23 15 24 20 14 48 -6 17 -26 46 -46 65 -32 31
-41 34 -93 34 -54 0 -60 2 -73 28 -29 56 -62 76 -126 78 -48 2 -69 9 -117 38
-32 20 -64 36 -72 36 -7 0 -65 18 -129 41 -94 32 -139 42 -232 50 -141 11
-210 23 -249 44 -17 8 -38 15 -49 15 -10 0 -38 13 -63 29 -28 18 -64 31 -99
36 -30 4 -79 18 -108 32 -30 13 -76 28 -104 32 -27 5 -54 13 -61 20 -6 6 -39
11 -73 11 -36 0 -66 5 -70 11 -11 19 -127 5 -167 -20 -34 -21 -34 -21 -59 -1
-14 11 -28 33 -31 49 -7 34 -3 33 -191 51 -114 11 -193 28 -139 29 27 1 38 17
24 34 -28 34 -203 109 -334 143 l-139 37 -26 -22 c-80 -64 -120 -63 -135 2 -8
34 -12 37 -64 47 -51 11 -58 10 -84 -9 -37 -27 -40 -27 -75 10 -40 43 -87 65
-179 84 -89 18 -112 15 -207 -28 -78 -34 -95 -29 -100 31 -3 31 -7 37 -28 39
-14 1 -37 -7 -51 -18z m246 -173 c28 -18 36 -26 25 -30 -114 -42 -144 -45
-160 -17 -14 27 -13 37 6 55 23 24 83 20 129 -8z"/>
<path d="M2210 11980 c-13 -11 -34 -20 -48 -20 -15 0 -37 -13 -58 -35 -32 -34
-67 -45 -79 -25 -10 16 -55 12 -62 -6 -4 -11 2 -23 18 -35 31 -24 162 -79 206
-86 30 -5 38 -1 77 42 34 37 49 46 72 45 64 -5 68 4 28 62 -30 42 -81 78 -111
78 -11 0 -30 -9 -43 -20z"/>
<path d="M6182 11928 c-32 -32 14 -118 63 -118 31 0 65 28 65 54 0 52 -94 98
-128 64z"/>
<path d="M1641 11823 c-12 -14 -28 -51 -37 -81 -18 -62 -14 -71 45 -91 72 -24
123 -10 159 43 42 61 25 113 -45 142 -53 23 -98 18 -122 -13z"/>
<path d="M1377 11683 c-12 -11 -8 -40 6 -52 21 -17 55 23 37 44 -13 16 -32 20
-43 8z"/>
<path d="M3565 11549 c-28 -4 -77 -20 -108 -34 -73 -32 -124 -32 -187 0 -27
14 -58 25 -68 25 -11 0 -62 -13 -113 -30 -96 -31 -191 -52 -312 -69 -41 -6
-92 -22 -127 -40 -33 -17 -72 -31 -88 -31 -16 0 -46 -7 -65 -15 -26 -11 -70
-14 -169 -13 -124 2 -137 0 -188 -23 -30 -15 -85 -36 -122 -48 -89 -29 -120
-65 -116 -130 3 -39 7 -48 30 -59 33 -16 96 -2 143 32 24 17 42 21 90 19 36
-2 94 6 145 18 47 12 112 21 145 21 33 -1 94 8 137 18 49 13 110 20 170 20 74
0 101 4 131 20 26 14 56 20 99 20 35 0 95 7 133 15 39 8 167 20 285 26 212 12
230 11 450 -18 56 -7 173 13 223 39 38 19 39 19 100 -1 34 -11 82 -25 107 -31
25 -6 62 -23 83 -38 35 -23 49 -26 130 -27 89 0 97 -2 249 -63 87 -34 206 -74
265 -88 189 -45 293 -82 293 -104 0 -18 -98 -23 -237 -13 -149 11 -198 27
-231 74 -19 28 -65 45 -252 94 -91 24 -176 48 -190 53 -17 6 -37 5 -63 -4 -33
-12 -46 -11 -100 3 -52 14 -116 17 -387 17 -179 0 -370 -1 -424 -2 l-100 -1
-52 -52 -53 -52 -50 21 c-58 26 -98 28 -127 7 -12 -8 -61 -19 -110 -25 -101
-12 -145 -23 -224 -52 -34 -12 -79 -20 -117 -20 -35 0 -63 -4 -63 -9 0 -5 18
-18 39 -29 22 -11 55 -38 73 -61 37 -46 31 -45 183 -15 44 8 108 15 141 16 34
0 126 7 205 16 167 18 198 16 301 -26 91 -36 122 -38 146 -8 49 63 71 78 108
78 25 0 49 -9 72 -27 32 -24 38 -25 68 -14 43 15 61 6 38 -20 -24 -26 -127
-58 -227 -69 -47 -6 -107 -19 -134 -31 -43 -19 -53 -20 -100 -8 -66 15 -233 7
-398 -21 -66 -11 -160 -23 -210 -26 -49 -3 -100 -11 -113 -17 -16 -7 -42 -8
-91 0 -43 7 -86 8 -113 2 -24 -4 -122 -13 -218 -18 l-175 -10 -114 -58 c-124
-63 -147 -88 -116 -123 9 -10 37 -22 61 -26 43 -6 55 -3 172 40 24 9 84 21
135 26 76 8 105 16 175 51 78 39 88 41 139 35 31 -4 90 -18 132 -32 166 -57
224 -64 318 -38 46 12 147 18 478 25 231 5 538 12 682 15 183 5 272 3 294 -5
18 -6 91 -18 163 -27 102 -11 144 -21 191 -43 103 -49 155 -63 331 -85 61 -8
129 -22 150 -31 22 -9 77 -20 124 -25 47 -4 112 -18 145 -30 33 -12 110 -40
170 -61 61 -21 115 -41 120 -44 6 -2 -28 -3 -75 -2 -77 2 -90 6 -139 37 -53
33 -58 34 -141 32 -58 -2 -101 3 -130 13 -44 16 -45 16 -88 -15 -23 -16 -48
-30 -55 -30 -7 0 -29 16 -48 36 -54 56 -78 65 -158 58 -54 -5 -76 -3 -93 8
-13 8 -45 18 -73 23 -27 4 -68 18 -91 31 -28 17 -73 29 -145 39 -57 8 -150 22
-206 31 -82 13 -128 15 -240 8 -76 -5 -145 -7 -153 -6 -51 8 -355 10 -405 2
-33 -5 -107 -12 -165 -16 -58 -3 -129 -13 -158 -21 -47 -14 -57 -14 -99 -1
-31 10 -57 12 -77 7 -17 -5 -60 -16 -96 -25 -133 -35 -266 -95 -342 -155 l-26
-22 -36 23 c-50 31 -77 21 -126 -45 -35 -47 -45 -55 -74 -55 -64 0 -236 -67
-236 -91 0 -5 -11 -16 -25 -25 -21 -14 -31 -14 -76 -3 -47 12 -52 12 -65 -6
-18 -25 -18 -65 2 -93 24 -34 67 -28 136 18 41 27 71 40 94 40 19 0 76 14 127
30 52 17 113 30 136 30 56 0 74 11 96 59 20 45 27 48 65 26 37 -21 64 -18 128
16 53 27 73 31 203 42 79 6 194 10 256 9 62 -2 156 4 210 12 274 41 676 47
776 12 l49 -17 75 35 c81 39 105 43 142 22 13 -7 33 -11 43 -8 10 2 27 -3 38
-13 16 -14 29 -16 69 -11 37 5 53 3 64 -9 20 -20 31 -19 96 6 68 25 81 20 81
-30 0 -31 6 -44 26 -60 45 -35 97 -27 148 24 14 14 33 25 42 25 10 0 57 -27
105 -59 83 -56 148 -81 214 -81 44 0 204 -59 322 -119 124 -62 148 -71 252
-96 35 -8 125 -42 200 -75 76 -32 187 -77 249 -99 126 -45 156 -60 226 -108
26 -18 56 -33 65 -33 9 0 30 -7 46 -16 17 -9 57 -25 90 -36 33 -11 85 -38 116
-59 46 -33 70 -42 137 -52 78 -13 82 -15 145 -74 36 -33 77 -63 93 -66 18 -3
36 -17 48 -37 20 -35 90 -83 180 -123 69 -32 87 -33 109 -9 40 44 -1 122 -63
122 -31 0 -36 4 -105 86 l-34 41 29 28 c17 16 30 31 30 34 0 15 -216 189 -266
216 -32 17 -61 38 -66 48 -29 61 -9 48 -184 116 -72 28 -140 51 -152 51 -11 0
-65 22 -119 50 -54 27 -177 76 -273 109 -256 87 -460 181 -460 211 0 20 31 22
73 7 23 -9 67 -19 97 -22 71 -8 132 -30 195 -70 75 -47 114 -57 192 -50 l68 7
48 -45 c53 -51 109 -75 232 -102 84 -18 111 -35 146 -92 20 -32 22 -33 93 -32
46 1 84 -5 102 -14 28 -14 54 -13 54 2 0 5 -13 25 -30 46 -16 20 -51 76 -76
124 -73 134 -77 138 -152 160 -85 26 -163 79 -207 140 -50 69 -98 88 -135 51
-19 -19 -20 -19 -88 0 -39 11 -119 40 -178 66 -148 63 -175 72 -277 93 -48 10
-91 21 -94 25 -7 6 11 72 26 95 11 17 56 9 221 -39 102 -29 153 -51 185 -81
12 -11 47 -22 86 -28 36 -5 89 -21 117 -35 64 -32 114 -34 142 -4 11 12 20 28
20 35 0 7 5 13 10 13 6 0 10 -6 10 -14 0 -28 79 -37 100 -11 19 23 8 49 -29
67 -18 9 -43 26 -55 37 -35 33 -186 120 -230 133 -23 6 -58 27 -79 45 -33 30
-43 33 -98 33 -69 0 -88 8 -145 61 -40 36 -94 59 -140 59 -31 0 -145 42 -269
98 -145 65 -187 79 -284 91 -45 6 -90 15 -101 21 -10 5 -28 10 -40 10 -11 0
-62 16 -112 35 -50 20 -125 42 -167 49 -51 9 -93 24 -126 45 -60 37 -171 61
-285 61 -69 0 -87 4 -151 35 -41 19 -83 35 -95 35 -11 0 -42 11 -68 25 -41 22
-59 25 -137 24 -87 -1 -92 0 -149 35 -54 33 -100 46 -100 28 0 -4 -13 -22 -29
-40 -34 -36 -49 -35 -96 8 -46 43 -62 47 -190 60 -66 6 -147 18 -180 26 -33 7
-64 13 -70 13 -5 -1 -33 -5 -60 -10z m523 -611 c39 -17 72 -35 72 -39 0 -10
-59 -59 -72 -59 -22 0 -88 78 -88 104 0 14 3 26 8 26 4 0 40 -14 80 -32z
m1352 -24 c0 -2 -12 -4 -26 -4 -14 0 -23 4 -20 9 6 8 46 4 46 -5z m-875 -14
c34 -32 78 -41 112 -23 37 20 110 12 187 -19 74 -30 90 -52 57 -79 -32 -26
-82 -24 -143 7 -43 22 -59 25 -97 19 -85 -14 -125 -8 -230 31 -134 50 -140 64
-29 64 46 0 90 5 98 10 20 13 21 13 45 -10z m998 -20 c36 -11 67 -26 70 -34 7
-17 -11 -36 -34 -36 -19 0 -109 66 -109 80 0 13 -3 13 73 -10z m215 -83 c2
-10 -3 -17 -12 -17 -10 0 -16 9 -16 21 0 24 23 21 28 -4z m137 -18 c0 -7 -8
-15 -17 -17 -18 -3 -25 18 -11 32 10 10 28 1 28 -15z m-772 -15 c39 -14 120
-38 180 -53 121 -30 143 -44 112 -68 -15 -11 -38 -14 -95 -11 -78 5 -134 25
-198 72 -18 13 -54 27 -80 31 -59 8 -77 18 -69 39 9 24 66 20 150 -10z m954
-49 c10 -27 -6 -30 -29 -7 l-22 22 22 0 c12 0 25 -7 29 -15z m-345 -136 c37
-12 68 -25 68 -30 0 -4 -18 -10 -39 -14 -40 -7 -101 13 -153 49 -22 16 -22 16
17 16 22 0 70 -10 107 -21z"/>
<path d="M1765 11512 c-16 -11 -36 -26 -44 -36 -12 -14 -12 -18 5 -31 33 -25
82 -30 104 -10 24 22 25 43 4 73 -18 27 -30 27 -69 4z"/>
<path d="M1551 11423 c-25 -20 -40 -76 -31 -113 6 -24 9 -25 88 -25 62 0 85 4
98 16 22 23 10 59 -20 59 -27 0 -46 18 -46 42 0 18 -28 38 -53 38 -8 0 -25 -8
-36 -17z"/>
<path d="M1265 11323 c4 -16 11 -57 15 -92 5 -35 13 -68 19 -74 19 -19 106
-11 152 14 48 28 65 49 56 73 -9 22 -185 106 -222 106 -25 0 -27 -2 -20 -27z"/>
<path d="M1662 11121 c-47 -35 -82 -84 -82 -118 0 -34 12 -34 79 -3 87 41 103
40 99 -7 -5 -60 22 -48 59 27 18 36 33 73 33 82 0 23 -32 39 -93 45 -47 4 -56
2 -95 -26z"/>
<path d="M974 11105 c-27 -41 -15 -60 39 -63 l47 -3 0 33 c0 19 -5 39 -12 46
-20 20 -56 14 -74 -13z"/>
<path d="M1093 11044 c-8 -20 8 -36 26 -25 15 10 8 41 -9 41 -6 0 -13 -7 -17
-16z"/>
<path d="M2265 11019 c-28 -5 -78 -17 -110 -28 -215 -71 -225 -77 -225 -118 0
-14 13 -38 29 -54 36 -36 76 -38 205 -8 171 39 277 81 290 115 3 8 -7 28 -22
44 -35 40 -101 59 -167 49z"/>
<path d="M1459 10967 c-19 -12 -38 -36 -43 -52 -25 -85 -39 -93 -50 -31 -12
63 -51 59 -135 -16 -62 -54 -134 -83 -191 -75 -44 6 -55 0 -63 -33 -10 -40
-114 -158 -172 -195 -87 -56 -126 -147 -70 -161 35 -9 105 19 140 56 32 33 56
38 75 15 21 -25 81 -18 134 15 66 42 180 162 207 216 21 44 23 45 56 39 28 -5
41 -1 67 19 19 14 55 30 82 37 27 7 55 16 62 22 19 15 15 98 -8 135 -23 38
-45 40 -91 9z"/>
<path d="M6532 10908 c-17 -17 -15 -32 7 -52 23 -21 53 -11 49 17 -4 28 -40
51 -56 35z"/>
<path d="M702 10874 c-40 -28 -23 -84 25 -84 25 0 49 41 39 66 -10 25 -42 34
-64 18z"/>
<path d="M1692 10584 c-48 -38 -71 -42 -107 -18 -24 16 -27 15 -78 -20 -28
-19 -79 -45 -112 -56 -48 -16 -70 -31 -110 -75 l-50 -56 -93 -15 c-108 -17
-244 -64 -287 -98 l-30 -24 28 -29 c15 -16 27 -34 27 -39 0 -18 -34 -43 -80
-59 -25 -9 -55 -27 -68 -40 -26 -29 -30 -29 -56 -10 -43 33 -106 13 -167 -52
-43 -44 -65 -85 -78 -142 -14 -62 7 -82 89 -88 76 -6 120 8 120 36 0 11 16 32
35 47 23 17 39 40 45 65 8 28 16 39 30 39 35 0 70 -20 80 -45 15 -39 41 -33
38 10 -1 19 0 36 2 38 36 28 171 97 190 97 60 0 171 71 210 135 12 19 45 48
74 64 29 17 83 51 120 76 37 25 77 45 88 45 41 0 225 115 236 148 2 7 -10 17
-27 23 -35 12 -39 26 -14 44 15 11 11 36 -5 34 -4 0 -26 -16 -50 -35z"/>
<path d="M2660 10591 c-8 -3 -33 -18 -55 -33 -25 -17 -75 -35 -135 -48 -90
-19 -236 -63 -271 -81 -15 -7 -15 -15 -6 -50 l10 -41 61 4 c34 3 77 13 96 23
22 11 60 18 109 19 105 3 190 47 227 118 28 54 7 107 -36 89z"/>
<path d="M92 10559 c5 -33 34 -47 54 -27 14 14 15 20 4 32 -7 9 -23 16 -37 16
-19 0 -24 -4 -21 -21z"/>
<path d="M1987 10358 c-21 -6 -56 -28 -78 -49 -41 -39 -41 -39 -124 -39 -46 0
-86 -4 -89 -9 -3 -5 -27 -14 -52 -20 -26 -7 -81 -31 -123 -55 -42 -24 -101
-52 -131 -61 -58 -19 -112 -65 -142 -122 -14 -27 -23 -32 -65 -38 -83 -11
-135 -35 -185 -86 -35 -35 -49 -59 -54 -87 -7 -45 -12 -53 -39 -68 -24 -13
-46 -54 -48 -92 -2 -25 0 -27 37 -25 47 3 150 50 219 99 27 19 81 50 121 68
39 19 103 56 141 83 64 46 88 68 159 146 16 17 35 27 53 27 60 0 123 66 123
129 0 29 29 54 54 46 53 -17 88 -17 135 3 26 12 78 26 116 32 72 12 123 33
131 55 10 24 -15 54 -54 65 -43 12 -54 11 -105 -2z"/>
<path d="M464 10315 c-44 -18 -74 -54 -74 -87 0 -36 24 -48 99 -48 48 0 65 4
81 20 26 26 25 63 -2 93 -29 32 -65 39 -104 22z"/>
<path d="M3730 10239 c-52 -5 -142 -6 -200 -3 -112 6 -94 10 -261 -56 -29 -12
-102 -28 -163 -36 -61 -9 -144 -27 -185 -41 -58 -20 -84 -24 -123 -19 -47 7
-50 5 -80 -29 -30 -33 -35 -35 -98 -35 -60 0 -71 -3 -116 -35 -44 -31 -56 -35
-114 -35 -54 0 -78 -6 -135 -34 -39 -19 -97 -55 -130 -80 -33 -25 -63 -46 -67
-46 -25 0 -185 -88 -246 -134 -41 -31 -82 -56 -91 -56 -10 0 -59 -27 -110 -60
-52 -32 -110 -64 -130 -71 -45 -14 -65 -32 -104 -89 -45 -67 -77 -99 -130
-127 -28 -16 -62 -46 -82 -74 -19 -27 -55 -60 -82 -75 -26 -15 -69 -47 -95
-72 -26 -25 -69 -57 -95 -71 -40 -22 -48 -31 -51 -59 -3 -28 -13 -39 -65 -73
-145 -96 -149 -178 -9 -179 73 0 102 18 142 90 70 124 71 124 125 131 32 3 52
11 59 24 62 104 151 190 228 219 57 21 123 91 140 148 16 55 32 65 63 40 39
-31 67 -21 174 61 35 26 107 70 160 97 132 66 284 157 393 235 50 36 100 65
110 65 24 0 53 15 98 51 19 16 70 40 113 54 43 14 97 35 120 47 37 19 57 21
155 20 102 -2 116 0 160 23 76 40 172 57 322 59 112 1 140 -2 168 -17 17 -10
32 -23 32 -31 0 -29 -69 -45 -355 -81 -283 -36 -369 -56 -483 -109 -101 -47
-209 -80 -301 -91 -43 -6 -61 -14 -87 -41 -19 -19 -52 -38 -76 -45 -73 -19
-157 -70 -234 -141 -57 -54 -86 -74 -135 -90 -57 -19 -100 -41 -201 -104 -37
-24 -118 -114 -165 -185 -18 -28 -23 -46 -19 -64 15 -58 82 -47 170 27 48 41
102 67 142 68 48 1 224 88 291 144 15 13 44 31 63 41 19 10 69 41 110 70 41
28 89 57 106 64 17 7 46 28 65 47 22 23 42 34 61 34 42 0 95 25 140 65 21 20
50 40 64 45 14 6 94 14 178 18 135 8 157 11 185 31 28 20 37 22 85 14 42 -8
82 -5 182 12 71 13 162 26 201 30 49 5 79 13 94 26 31 27 59 32 137 25 95 -8
689 -12 738 -5 28 3 62 -1 100 -13 32 -10 136 -27 232 -38 107 -13 195 -28
230 -41 31 -12 112 -37 180 -55 127 -35 154 -46 184 -72 35 -30 -18 -46 -59
-17 -29 20 -166 52 -283 65 -52 6 -162 24 -245 40 -266 53 -551 61 -780 24
-49 -8 -220 -21 -380 -29 -305 -15 -334 -18 -508 -41 -191 -25 -272 -45 -477
-119 -63 -23 -89 -27 -171 -26 -82 1 -102 -2 -133 -20 -37 -21 -45 -34 -25
-41 6 -2 -21 -21 -60 -43 -39 -21 -108 -71 -152 -111 -96 -87 -124 -106 -214
-139 -89 -34 -114 -47 -163 -89 -23 -19 -64 -42 -91 -51 -52 -17 -76 -50 -69
-97 3 -21 8 -23 58 -23 44 1 78 11 175 54 66 30 154 65 195 80 41 15 125 57
186 94 62 37 116 67 121 67 4 0 7 -21 5 -46 l-4 -46 33 17 c27 13 30 13 15 1
-10 -8 -85 -50 -167 -92 -176 -91 -219 -127 -219 -184 0 -44 -23 -57 -35 -20
-5 15 -15 20 -43 20 -55 -1 -109 -30 -187 -99 -73 -65 -108 -86 -133 -76 -37
14 -91 -63 -108 -151 -9 -49 -16 -54 -81 -54 -50 0 -53 -2 -83 -44 -28 -41
-34 -45 -78 -48 -45 -3 -48 -5 -70 -51 -22 -46 -24 -47 -56 -42 -46 9 -89 -29
-112 -98 -26 -79 -52 -127 -100 -181 -24 -26 -44 -54 -44 -61 0 -7 -36 -54
-80 -104 -106 -119 -130 -157 -130 -197 0 -69 98 -92 165 -39 20 17 45 34 56
40 23 12 26 21 45 110 23 107 47 149 125 211 40 32 71 65 75 80 4 16 29 39 73
68 85 55 241 209 267 263 16 34 25 42 55 47 62 10 144 53 244 128 28 20 76 48
106 62 30 13 81 46 114 73 82 68 136 103 230 151 44 23 91 48 105 55 60 33
134 66 137 63 3 -2 -23 -17 -56 -32 -59 -29 -60 -29 -60 -72 -1 -39 1 -42 18
-32 11 5 23 15 26 20 3 6 21 17 38 25 18 9 24 10 13 3 -10 -7 -39 -29 -65 -49
-25 -20 -88 -58 -139 -84 -50 -27 -137 -84 -192 -127 -55 -43 -113 -84 -128
-92 -15 -8 -46 -35 -70 -60 -35 -37 -53 -47 -98 -56 -59 -13 -67 -22 -79 -91
-6 -41 -17 -53 -55 -62 -38 -10 -120 -76 -155 -127 -23 -32 -45 -50 -82 -65
-62 -25 -80 -39 -123 -95 -18 -25 -57 -68 -84 -96 -51 -50 -150 -185 -162
-221 -4 -10 -43 -55 -87 -100 l-79 -83 7 -100 c9 -131 -1 -160 -57 -160 -32 0
-46 -7 -79 -39 -25 -23 -55 -42 -76 -46 -45 -8 -118 -80 -133 -132 -25 -82 5
-134 58 -101 15 10 46 26 68 37 23 10 51 33 63 50 24 33 50 39 97 21 34 -13
62 4 109 68 33 45 60 109 85 201 6 25 27 59 46 80 20 19 38 48 41 63 6 30 59
82 111 110 18 10 32 25 32 35 0 30 39 94 109 178 37 44 82 99 100 123 19 24
66 67 105 96 39 29 145 122 236 206 186 171 288 252 387 305 37 20 120 80 183
135 63 55 119 100 123 100 4 0 -19 -23 -52 -50 -59 -49 -61 -53 -61 -97 l0
-47 33 30 c17 16 44 38 58 49 14 11 -4 -8 -40 -42 -36 -34 -77 -65 -91 -68
-55 -14 -194 -141 -255 -234 -31 -47 -57 -61 -111 -61 -32 0 -37 -4 -54 -43
-10 -23 -32 -61 -48 -83 -17 -23 -37 -55 -46 -71 -11 -23 -26 -33 -60 -42 -36
-9 -56 -24 -105 -78 -32 -38 -105 -120 -161 -183 -56 -63 -109 -130 -116 -148
-8 -18 -28 -54 -44 -80 -16 -27 -34 -72 -41 -100 -6 -29 -15 -55 -21 -58 -5
-3 -22 6 -37 20 -33 32 -65 33 -85 4 -25 -36 -20 -85 12 -116 15 -15 36 -32
47 -38 27 -15 11 -31 -38 -39 -81 -13 -105 -42 -117 -141 -5 -42 -24 -98 -58
-171 -98 -210 -113 -292 -45 -248 38 25 133 116 133 127 0 5 13 28 29 51 48
70 63 108 71 174 9 72 18 86 68 110 20 10 55 36 79 58 33 32 43 49 43 74 0 40
16 46 64 26 75 -31 101 7 71 106 -22 71 -13 99 37 125 47 23 67 43 89 86 11
21 37 49 58 63 21 14 53 47 71 73 18 26 65 79 105 117 39 39 96 106 125 150
30 44 74 100 100 125 51 50 313 230 336 230 27 0 14 -25 -23 -45 -24 -13 -52
-44 -82 -90 -24 -38 -85 -110 -133 -158 -55 -54 -96 -105 -108 -131 -12 -30
-37 -58 -78 -90 -86 -66 -186 -178 -241 -271 -27 -44 -62 -102 -79 -129 -18
-28 -32 -57 -32 -67 0 -9 -34 -62 -75 -119 -78 -107 -80 -112 -90 -249 -4 -46
-15 -112 -25 -145 -11 -34 -24 -104 -30 -156 -13 -118 -19 -148 -36 -182 -13
-25 -20 -28 -64 -28 l-50 0 0 88 c0 113 4 125 51 151 44 25 56 56 41 100 -9
25 -7 32 14 52 20 19 24 32 24 84 0 38 6 69 15 82 19 27 6 37 -35 28 -33 -7
-90 -58 -90 -81 0 -8 -16 -31 -35 -52 -23 -26 -36 -52 -41 -83 -4 -24 -20 -73
-37 -108 -23 -49 -32 -82 -35 -140 -4 -76 -4 -77 23 -89 26 -12 26 -13 11 -35
-9 -12 -24 -35 -34 -51 -9 -16 -33 -48 -52 -70 -52 -59 -67 -86 -95 -170 -30
-90 -32 -129 -5 -156 65 -65 169 46 170 181 0 38 5 61 15 69 8 7 15 24 15 37
0 15 15 40 40 65 22 23 40 36 40 30 0 -6 -5 -14 -11 -17 -6 -5 -9 -56 -8 -144
2 -123 0 -142 -19 -182 -18 -36 -24 -77 -33 -205 -7 -105 -15 -167 -25 -181
-28 -44 -95 -22 -128 42 -31 59 -65 60 -123 3 -66 -64 -68 -70 -38 -127 37
-74 34 -128 -8 -172 -40 -41 -108 -231 -132 -367 -8 -46 -25 -100 -39 -124
-45 -78 -60 -166 -85 -503 -8 -103 -13 -129 -40 -185 -17 -36 -31 -73 -31 -83
0 -26 47 -66 86 -73 52 -10 78 2 109 46 27 40 29 47 36 204 7 140 11 172 32
222 14 33 35 95 47 139 12 44 38 110 58 146 l36 67 -17 54 c-9 30 -17 63 -17
72 0 10 20 41 45 69 56 64 65 103 36 150 -12 19 -21 37 -21 41 0 12 79 58 89
52 6 -4 13 -34 17 -68 5 -46 13 -68 31 -86 l24 -23 -31 -39 c-44 -56 -77 -135
-89 -217 -6 -40 -20 -94 -30 -120 -39 -100 -70 -291 -96 -583 -26 -293 -15
-442 37 -497 70 -74 140 37 153 243 8 122 24 169 75 219 49 48 55 43 64 -57 9
-90 3 -135 -55 -423 -49 -239 -60 -355 -39 -395 6 -11 26 -22 46 -26 50 -9 98
15 122 63 40 79 46 141 46 530 l1 373 41 6 c66 10 84 -6 85 -74 0 -31 6 -93
13 -137 7 -44 25 -152 40 -240 14 -88 32 -181 40 -208 9 -26 20 -96 26 -155
20 -197 30 -257 53 -302 15 -31 29 -46 45 -48 46 -7 81 138 51 215 -6 15 -14
92 -18 170 -7 140 -7 143 -36 173 l-30 31 25 19 c18 14 24 27 23 54 -1 45 -22
78 -74 116 l-40 29 50 26 c80 40 80 56 -4 242 -20 46 -34 91 -31 101 7 22 56
52 85 52 24 0 36 -20 44 -72 7 -47 43 -128 56 -128 6 0 20 19 32 42 28 56 22
90 -43 216 l-52 103 17 67 c11 42 17 105 17 169 0 56 5 114 11 130 21 53 39
198 39 311 l0 112 35 0 c31 0 35 -3 42 -37 15 -78 6 -244 -21 -366 -30 -136
-33 -221 -10 -275 27 -63 34 -92 54 -225 10 -71 26 -139 34 -152 9 -14 16 -34
16 -45 0 -12 12 -42 27 -67 21 -36 28 -65 35 -146 13 -161 35 -217 83 -217 34
0 45 21 44 84 -1 46 3 62 19 78 20 21 21 21 105 3 47 -10 92 -15 100 -12 9 3
16 26 19 64 3 32 14 75 24 96 15 30 16 41 6 55 -27 39 -50 89 -55 126 -3 21
-17 60 -31 86 -13 25 -28 64 -32 86 -3 21 -13 51 -20 65 -7 15 -20 80 -29 145
-27 213 -44 263 -100 300 -24 16 -27 16 -43 0 -14 -14 -16 -35 -14 -131 3
-115 -5 -155 -33 -155 -17 0 -35 81 -35 165 0 42 7 83 21 117 17 43 22 82 27
206 l5 152 42 0 43 0 10 -62 c6 -35 14 -90 18 -123 7 -61 16 -84 59 -144 15
-20 25 -48 25 -68 0 -38 24 -103 39 -103 11 0 31 -54 31 -87 0 -13 7 -37 15
-53 14 -26 13 -33 -2 -65 -16 -34 -16 -35 9 -63 33 -35 36 -45 53 -168 8 -57
26 -130 39 -162 14 -32 30 -81 37 -108 13 -55 41 -115 74 -159 27 -36 40 -76
55 -175 13 -80 22 -103 51 -136 11 -11 25 -43 32 -70 7 -28 27 -68 44 -90 17
-21 38 -62 47 -91 33 -102 100 -163 179 -163 28 0 42 -8 67 -37 34 -39 69
-107 70 -134 0 -9 11 -24 25 -33 14 -9 31 -32 39 -51 11 -25 23 -36 48 -43 61
-16 76 5 52 76 -33 95 -91 164 -214 255 -43 31 -49 43 -64 118 -3 15 -30 51
-59 81 -84 85 -181 276 -175 342 l3 31 23 -25 c13 -14 44 -64 69 -112 32 -60
65 -105 105 -143 32 -31 70 -75 84 -98 38 -61 62 -84 110 -107 37 -18 46 -29
70 -88 31 -77 59 -107 112 -121 85 -24 132 -12 132 33 0 43 -45 95 -165 192
-52 41 -111 98 -132 127 -20 29 -61 81 -89 117 -29 36 -59 81 -67 100 -20 49
-92 127 -138 150 -55 29 -143 166 -174 273 -10 35 -33 77 -60 109 -26 32 -54
83 -70 128 -15 41 -36 99 -46 128 -11 29 -24 100 -30 158 -10 105 -15 128 -62
239 -56 130 -62 425 -10 425 8 0 13 15 14 38 1 29 3 25 10 -23 5 -33 14 -94
20 -135 6 -41 20 -95 30 -120 11 -24 24 -73 29 -108 5 -36 24 -96 44 -138 19
-41 38 -91 42 -112 4 -20 20 -64 37 -97 19 -39 33 -85 38 -132 5 -42 25 -115
48 -179 35 -91 40 -115 35 -155 -6 -46 -6 -48 52 -112 33 -36 75 -91 94 -123
19 -32 89 -113 155 -179 66 -66 129 -138 140 -159 16 -31 29 -43 63 -54 28 -9
54 -28 79 -58 34 -42 188 -154 211 -154 14 0 26 82 18 115 -4 15 -30 43 -64
68 -87 64 -233 215 -287 298 -26 41 -76 107 -111 147 -41 47 -67 87 -75 115
-14 55 -33 95 -61 130 -17 21 -23 42 -24 90 -1 52 -8 74 -43 142 -38 70 -42
84 -36 123 10 65 -44 224 -97 288 -47 57 -58 82 -58 132 0 38 30 114 48 126 6
3 22 -8 36 -25 21 -25 26 -41 26 -87 0 -50 5 -64 41 -117 22 -33 58 -95 80
-137 21 -43 52 -87 69 -100 37 -27 38 -49 4 -94 -26 -33 -26 -38 -22 -132 8
-137 40 -216 200 -482 44 -73 272 -300 377 -375 47 -33 98 -72 115 -87 l31
-26 -22 -24 c-38 -40 -30 -64 30 -94 73 -38 154 -90 208 -135 26 -21 134 -82
240 -135 107 -53 223 -116 259 -140 66 -43 150 -119 150 -135 0 -4 -21 -7 -47
-7 -31 1 -63 -7 -90 -21 l-43 -21 -25 40 c-23 36 -30 41 -57 38 -34 -3 -55
-27 -45 -51 3 -9 35 -30 69 -46 38 -18 67 -39 73 -53 14 -32 84 -68 142 -72
26 -2 65 -13 85 -25 22 -14 83 -31 150 -42 62 -12 152 -34 199 -50 115 -40
188 -50 265 -40 86 13 131 36 154 81 11 21 25 40 33 43 8 3 17 19 20 35 7 34
30 46 59 31 22 -12 21 -25 -3 -106 -10 -34 -10 -44 0 -57 27 -33 71 -12 71 33
l0 26 19 -24 c17 -22 27 -24 122 -28 57 -3 109 -6 116 -8 8 -3 6 -15 -7 -42
-25 -50 -17 -90 23 -112 16 -9 41 -25 54 -36 25 -20 25 -21 9 -59 -15 -35 -15
-41 -1 -63 34 -52 85 -18 85 58 0 66 9 81 72 119 29 17 78 57 108 89 55 58 56
58 169 86 125 31 125 31 137 -33 7 -38 -5 -56 -47 -71 -28 -10 -34 -7 -66 24
-40 39 -66 43 -103 19 -52 -35 -64 -68 -30 -79 19 -6 19 -8 5 -28 -19 -28 -19
-71 0 -87 12 -10 34 -11 88 -5 116 13 152 12 152 -4 0 -8 -18 -24 -40 -35 -22
-12 -51 -38 -64 -59 -13 -20 -29 -37 -35 -37 -6 0 -34 16 -61 36 l-50 35 -15
-23 c-49 -76 -100 -103 -215 -114 -97 -9 -102 -11 -115 -50 -14 -42 -7 -79 17
-88 10 -4 46 -10 80 -13 69 -6 94 -23 73 -48 -8 -10 -30 -15 -61 -15 -61 0
-99 -14 -99 -37 0 -10 11 -35 25 -55 30 -45 31 -55 4 -84 -12 -13 -19 -30 -16
-38 10 -26 43 -18 76 19 30 34 37 53 43 105 3 27 -1 27 111 14 57 -7 97 14 97
50 0 26 -21 47 -67 66 -62 24 -38 42 88 68 112 23 189 58 261 119 45 39 56 44
84 38 43 -8 94 17 94 47 0 18 -4 20 -39 14 -29 -4 -44 -2 -55 10 -36 36 -13
51 76 50 66 -1 80 2 99 20 26 27 18 47 -48 115 -35 36 -44 52 -38 68 8 25 27
27 45 5 39 -46 90 -39 126 18 14 21 40 46 59 55 45 21 44 38 -1 53 -58 19
-163 8 -219 -24 -59 -32 -73 -33 -81 -1 -8 33 -29 44 -76 38 l-38 -6 0 64 c0
75 20 168 44 204 16 24 18 25 47 10 27 -15 33 -14 75 5 26 11 48 20 50 20 14
0 -5 -28 -66 -96 -109 -118 -110 -135 -9 -98 24 9 72 19 107 24 43 6 77 18
111 39 28 18 61 31 80 31 17 0 59 11 92 25 33 14 64 23 69 20 6 -4 10 -28 10
-55 0 -50 13 -71 33 -51 14 14 10 191 -6 238 -17 50 -58 80 -94 67 -37 -13
-40 -38 -9 -67 32 -29 32 -37 5 -37 -12 0 -37 -18 -59 -41 -49 -54 -82 -52
-123 9 l-29 43 111 114 c105 107 111 116 111 155 0 41 0 41 22 26 51 -36 91
-10 102 65 8 53 55 157 82 180 10 9 39 26 64 38 25 13 68 40 97 62 50 37 53
38 115 33 54 -4 69 -2 103 18 52 31 54 63 6 95 -19 13 -45 23 -57 23 -30 0
-31 22 -3 61 27 38 43 37 91 -6 21 -20 50 -41 64 -47 23 -11 28 -9 51 20 13
18 38 39 54 47 17 10 31 26 34 43 3 15 13 53 22 85 l16 57 107 0 c101 0 108
-1 130 -25 29 -31 38 -31 46 0 l6 25 145 0 c111 0 144 -3 141 -12 -3 -7 -14
-14 -26 -16 -14 -2 -30 -18 -41 -41 -11 -20 -27 -43 -35 -50 -17 -15 -21 -48
-7 -70 12 -18 31 -5 31 22 0 34 12 45 55 52 64 11 75 15 75 31 0 8 10 30 23
49 19 29 28 35 59 35 l38 0 2 196 3 196 65 20 c80 24 104 46 104 94 0 39 -30
74 -64 74 -19 0 -60 -44 -60 -65 0 -12 -31 -45 -43 -45 -4 0 -7 50 -7 110 0
61 4 110 9 110 19 0 23 41 6 67 -15 22 -17 47 -14 167 1 78 2 174 1 214 l-2
72 -117 0 c-112 1 -117 2 -89 16 23 13 27 20 22 42 -3 15 -11 52 -17 82 -6 30
-18 63 -27 74 -26 29 -90 57 -136 60 -97 7 -149 65 -115 128 9 17 8 24 -8 37
-11 9 -39 43 -61 77 -47 71 -142 161 -179 170 -35 9 -57 -7 -61 -44 -6 -60 41
-117 86 -105 20 5 22 1 22 -38 0 -46 28 -105 55 -115 9 -4 29 -1 46 6 45 19
59 1 35 -45 -26 -47 -16 -74 46 -131 54 -48 150 -100 167 -90 12 8 26 -12 41
-59 7 -21 22 -46 32 -55 17 -14 8 -15 -109 -12 l-129 3 -23 45 c-28 52 -103
124 -129 124 -31 0 -62 -42 -62 -84 0 -32 7 -43 51 -84 49 -45 86 -98 76 -109
-3 -2 -8 5 -12 17 -4 12 -20 37 -37 56 l-30 34 -100 0 c-89 0 -103 2 -136 25
-20 14 -40 25 -44 25 -5 0 -8 -11 -8 -25 l0 -25 -165 0 c-164 0 -165 0 -165
23 -1 35 -55 182 -96 256 -46 85 -79 119 -126 131 -52 14 -56 29 -19 59 17 14
31 35 31 46 0 11 -30 83 -66 160 -36 77 -71 163 -79 191 -7 28 -29 83 -49 122
-20 39 -36 76 -36 82 0 6 39 10 101 10 93 0 100 -1 93 -17 -4 -10 -9 -35 -12
-55 -10 -86 115 -215 158 -163 16 20 7 119 -16 172 -12 29 -16 65 -14 146 1
77 -3 113 -12 125 -12 15 -11 16 5 3 21 -17 68 -106 87 -166 21 -67 67 -148
100 -179 23 -21 30 -36 27 -53 -3 -16 5 -35 23 -58 20 -25 29 -51 34 -97 9
-72 14 -83 70 -152 43 -54 58 -83 76 -153 6 -23 26 -61 46 -84 31 -38 35 -48
30 -81 -8 -49 8 -81 54 -107 50 -28 74 -27 99 5 29 36 26 60 -9 101 -24 27
-29 40 -23 56 4 12 8 39 7 61 0 32 -6 44 -35 67 -86 70 -148 145 -171 208 -9
26 -26 71 -37 101 -21 56 -26 96 -15 124 5 12 14 5 36 -29 32 -48 130 -135
153 -135 30 0 33 75 6 135 -26 59 -132 153 -189 168 -53 14 -95 64 -112 131
-17 66 -36 100 -86 157 -26 29 -62 86 -80 126 -19 41 -45 91 -59 111 -20 29
-25 49 -25 96 0 41 -5 65 -17 78 -9 10 -13 18 -10 18 13 0 148 -169 162 -203
18 -43 51 -70 113 -93 73 -26 82 -42 82 -139 0 -74 3 -87 25 -113 13 -16 55
-45 93 -65 74 -39 86 -50 125 -117 45 -78 113 -147 175 -176 31 -14 78 -46
104 -70 30 -28 56 -44 73 -44 28 0 65 32 65 57 0 24 -107 179 -138 201 -15 10
-47 28 -72 40 -60 29 -124 91 -155 152 -15 30 -37 56 -55 65 -17 9 -42 29 -56
44 -17 19 -39 31 -66 35 -57 9 -61 13 -41 47 17 29 17 31 -4 67 -24 41 -60
113 -91 184 -14 31 -32 53 -53 63 -30 16 -31 19 -26 63 8 71 -10 103 -84 147
-35 21 -83 54 -106 72 l-43 34 0 85 c0 76 -3 89 -27 122 -16 23 -10 18 18 -13
125 -143 182 -195 407 -373 37 -29 91 -61 120 -72 83 -31 106 -46 178 -110 37
-33 87 -68 110 -79 23 -11 52 -34 64 -51 24 -34 60 -55 130 -76 26 -8 74 -34
106 -59 60 -47 66 -50 147 -60 40 -5 51 -12 70 -40 12 -18 34 -41 48 -49 39
-23 100 -21 127 4 50 47 10 103 -103 144 -54 19 -77 35 -104 67 -40 47 -144
119 -173 119 -11 0 -44 25 -74 55 -38 38 -81 67 -142 97 -53 26 -103 58 -129
85 -35 36 -49 43 -80 43 -44 0 -161 52 -211 95 -18 15 -41 44 -52 64 -21 41
-156 197 -168 194 -4 -1 -12 -21 -17 -45 -7 -26 -17 -44 -27 -46 -23 -4 -67
90 -79 174 -6 38 -18 78 -27 89 -10 12 -5 8 10 -7 25 -25 35 -28 94 -28 37 0
84 -5 106 -12 31 -9 47 -9 73 1 23 8 100 12 236 11 225 0 216 2 322 -82 27
-20 65 -40 85 -44 42 -7 89 -33 117 -64 25 -28 56 -25 87 8 45 46 64 127 36
150 -7 5 -37 12 -66 14 -48 5 -59 10 -106 57 -28 28 -59 51 -68 51 -9 0 -29
16 -43 35 -15 19 -44 42 -66 52 l-39 17 0 133 c0 108 3 135 15 139 25 10 27
42 6 90 -20 44 -21 65 -21 350 l0 304 -146 0 c-145 0 -146 0 -183 28 -58 46
-121 79 -193 101 -77 23 -105 37 -190 91 -33 22 -92 50 -131 62 -51 17 -80 33
-106 60 -19 21 -42 38 -50 38 -8 0 -29 12 -48 26 -18 14 -54 32 -81 39 -27 9
-88 45 -142 85 -52 39 -140 96 -195 128 -55 31 -139 82 -186 113 -47 32 -103
62 -125 68 -43 12 -241 124 -291 166 -18 15 -54 32 -80 39 -85 23 -168 75
-149 94 11 11 82 6 118 -8 18 -7 58 -28 88 -47 30 -18 138 -67 239 -108 223
-92 257 -109 271 -136 14 -24 135 -85 190 -94 22 -4 92 -40 166 -86 70 -43
142 -82 160 -85 21 -4 59 -29 100 -65 41 -36 79 -61 100 -65 18 -3 73 -29 121
-58 171 -101 392 -196 426 -183 40 15 47 117 12 170 -9 14 -54 47 -99 71 -45
25 -120 73 -167 109 -51 37 -127 82 -185 107 -121 53 -176 85 -278 162 -48 36
-158 98 -285 162 -113 56 -276 139 -361 183 -85 45 -166 84 -180 88 -14 4 -45
20 -70 36 -59 37 -113 56 -230 80 -98 20 -169 48 -232 91 -21 14 -54 29 -74
32 -20 4 -62 21 -93 37 -50 26 -73 31 -187 40 -149 11 -157 13 -206 46 -28 19
-45 24 -68 19 -16 -3 -42 -9 -58 -12 -21 -4 -36 2 -66 25 -34 27 -46 31 -102
31 -35 0 -81 7 -103 16 -36 14 -42 14 -70 0 -37 -20 -54 -20 -107 -1 -139 48
-645 78 -914 54z m700 -189 c193 -8 214 -12 242 -41 11 -11 40 -19 85 -24 37
-3 120 -17 183 -30 63 -14 150 -31 192 -39 43 -8 119 -28 170 -44 51 -17 118
-33 148 -37 66 -8 183 -63 234 -110 67 -61 18 -78 -80 -29 -38 19 -73 34 -80
34 -7 0 -46 14 -87 30 -42 17 -90 30 -107 30 -17 0 -62 13 -98 29 -37 16 -96
33 -132 36 -36 4 -101 16 -145 27 -44 11 -125 23 -180 28 -55 5 -138 13 -185
19 -47 6 -206 15 -355 21 -148 6 -317 15 -374 21 l-104 10 -29 -28 -29 -28
-65 35 c-35 18 -64 37 -64 41 0 11 57 19 134 19 49 0 79 5 94 16 50 35 127 37
632 14z m-118 -477 c9 -10 23 -33 33 -52 l17 -34 -113 7 c-154 9 -217 27 -178
51 12 8 175 43 205 44 11 1 28 -7 36 -16z m182 -72 c3 -5 -1 -14 -9 -21 -17
-14 -68 -5 -86 16 -10 12 -4 14 39 14 28 0 53 -4 56 -9z m371 -27 c22 -9 59
-19 83 -23 49 -9 62 -18 42 -31 -48 -31 -384 18 -398 58 -6 19 221 16 273 -4z
m-905 -54 c70 -34 151 -65 185 -71 117 -22 113 -20 90 -29 -37 -15 -286 -11
-350 5 -51 14 -188 28 -375 38 -33 2 -19 4 38 5 l92 2 0 40 0 40 -53 0 c-31 0
-63 -7 -77 -16 l-25 -16 24 21 c21 19 35 21 130 19 65 -1 115 3 127 10 35 21
68 13 194 -48z m-1415 10 c-11 -5 -29 -8 -40 -8 -16 0 -15 2 5 8 34 11 60 11
35 0z m-68 -16 c-3 -3 -12 -4 -19 -1 -8 3 -5 6 6 6 11 1 17 -2 13 -5z m986
-19 c-10 -13 -22 -25 -27 -25 -5 0 1 11 14 25 30 32 36 32 13 0z m-1030 8 c-7
-2 -19 -2 -25 0 -7 3 -2 5 12 5 14 0 19 -2 13 -5z m814 0 c-20 -2 -52 -2 -70
0 -17 2 0 4 38 4 39 0 53 -2 32 -4z m-127 -18 c-14 -8 -38 -14 -55 -13 -27 0
-27 1 8 8 20 4 40 10 44 13 3 4 11 7 17 7 6 -1 0 -7 -14 -15z m230 -4 c0 -11
-4 -22 -9 -25 -5 -4 -7 3 -4 13 3 13 -1 21 -14 24 -15 4 -14 5 5 6 16 1 22 -5
22 -18z m-342 -18 c-10 -2 -28 -2 -40 0 -13 2 -5 4 17 4 22 1 32 -1 23 -4z
m2940 -49 c59 -31 108 -60 110 -64 2 -5 -10 -16 -27 -24 -29 -16 -32 -15 -104
23 -96 51 -157 89 -157 99 0 39 63 27 178 -34z m-3020 39 c-10 -2 -26 -2 -35
0 -10 3 -2 5 17 5 19 0 27 -2 18 -5z m2446 -23 c49 -33 64 -58 40 -67 -16 -6
-76 45 -95 80 -15 26 6 21 55 -13z m-2507 14 c-3 -3 -12 -4 -19 -1 -8 3 -5 6
6 6 11 1 17 -2 13 -5z m446 -1 c-7 -2 -19 -2 -25 0 -7 3 -2 5 12 5 14 0 19 -2
13 -5z m-60 -13 c-12 -5 -77 -16 -145 -26 -162 -22 -250 -45 -336 -88 -38 -19
-98 -40 -131 -45 -36 -6 -85 -23 -116 -41 l-55 -31 0 48 0 48 74 48 c110 72
149 79 446 87 140 3 262 6 270 7 8 1 5 -2 -7 -7z m1107 -46 c28 -4 53 -10 55
-14 6 -9 -51 -60 -67 -60 -5 0 -23 13 -39 29 -31 31 -40 67 -14 57 8 -3 37 -8
65 -12z m363 -27 c19 -8 81 -18 138 -22 218 -15 470 -92 394 -121 -9 -4 -49 3
-88 14 -89 25 -153 36 -377 62 -183 21 -282 43 -301 66 -11 14 -10 16 30 26
25 7 170 -11 204 -25z m-2313 -112 c-14 -8 -32 -14 -40 -14 -8 0 -1 6 15 14
40 18 57 18 25 0z m1209 -1 c2 -2 -21 -4 -52 -4 l-57 0 0 -60 c0 -55 2 -60 23
-61 14 -1 9 -4 -15 -10 -26 -6 -47 -4 -70 5 -18 7 -58 19 -88 26 -57 13 -90
34 -90 56 0 21 59 47 125 54 55 7 215 2 224 -6z m221 -1 c75 -8 110 -6 127 9
10 8 13 5 13 -14 0 -34 -25 -65 -63 -77 -28 -9 -172 -28 -251 -34 l-28 -2 0
63 c1 34 1 64 1 67 1 4 88 -1 201 -12z m2491 -34 c63 -29 132 -54 164 -58 48
-7 59 -13 96 -54 22 -26 62 -59 87 -74 179 -101 215 -125 297 -204 102 -97
124 -112 146 -98 40 25 149 -12 204 -70 17 -18 46 -42 65 -53 19 -11 48 -37
64 -57 28 -34 28 -34 -15 7 l-45 42 -111 0 -112 0 -112 55 c-62 30 -122 55
-135 55 -16 0 -32 14 -55 48 -52 77 -70 92 -164 139 -49 25 -123 71 -164 102
-96 73 -167 123 -279 195 -51 33 -92 63 -92 68 0 20 60 4 161 -43z m-3872 -13
c-2 -2 -15 -9 -29 -15 -24 -11 -24 -11 -6 3 16 13 49 24 35 12z m725 -12 c9
-3 16 -10 16 -15 0 -20 -214 -64 -369 -75 -113 -8 -187 -41 -293 -128 -37 -31
-69 -56 -71 -56 -1 0 0 22 3 50 5 46 9 52 61 92 31 24 78 61 104 83 l48 40
126 6 c194 8 358 10 375 3z m2426 -14 c12 -7 13 -13 4 -27 -13 -20 -70 -21
-116 -2 -28 11 -34 20 -21 32 10 11 116 8 133 -3z m-1331 -11 c47 -5 94 -15
105 -21 19 -11 16 -14 -39 -39 -69 -32 -95 -36 -95 -13 0 16 -56 44 -89 44
-39 0 -121 22 -115 31 7 12 130 11 233 -2z m-671 -36 c-10 -2 -26 -2 -35 0
-10 3 -2 5 17 5 19 0 27 -2 18 -5z m2244 -13 c36 -10 89 -61 70 -68 -5 -1 -35
8 -66 22 -31 14 -72 28 -91 32 -19 3 -35 10 -35 15 0 12 76 11 122 -1z m-1016
-24 c84 -31 101 -46 52 -46 -82 0 -216 39 -203 60 11 17 82 11 151 -14z m321
-31 c28 -19 64 -37 79 -41 16 -4 36 -13 45 -20 8 -8 40 -18 70 -24 30 -6 60
-18 67 -27 17 -23 1 -28 -40 -14 -17 6 -59 11 -94 11 -35 0 -78 6 -96 14 -18
8 -60 23 -92 33 -33 10 -62 24 -64 31 -4 11 52 72 67 72 3 0 29 -16 58 -35z
m1186 -129 c198 -98 308 -168 349 -224 38 -51 63 -64 143 -77 100 -17 112 -23
161 -88 26 -34 40 -56 30 -48 -10 8 -31 34 -47 58 -26 37 -35 43 -64 43 l-35
0 0 -74 0 -73 -31 -7 c-89 -17 -130 6 -154 89 -9 29 -25 65 -36 79 -37 47
-276 231 -359 277 -132 72 -140 78 -140 95 0 27 60 11 183 -50z m-2051 33 c29
-6 108 -26 176 -45 67 -19 157 -39 200 -45 95 -13 164 -34 220 -66 81 -48 36
-56 -80 -15 -31 11 -102 25 -158 31 -78 7 -111 15 -145 36 l-44 25 -67 -16
c-65 -17 -68 -17 -138 6 -54 18 -98 24 -186 26 -63 1 -125 6 -138 11 -20 8
-13 12 55 36 87 29 208 36 305 16z m-1277 -13 l40 -13 -30 -8 c-78 -20 -362
-170 -522 -276 l-33 -21 0 56 0 56 50 25 c27 14 86 34 130 44 90 21 123 42
114 75 -3 14 2 28 13 39 38 34 164 46 238 23z m697 -22 c21 -15 38 -30 38 -34
0 -7 -101 -55 -137 -65 -18 -5 -23 -2 -23 12 1 19 30 64 30 46 0 -7 -4 -15
-10 -18 -5 -3 -10 -13 -10 -21 0 -12 4 -12 20 -4 13 7 20 21 20 41 0 19 -4 28
-11 23 -6 -3 -3 5 6 20 22 32 30 32 77 0z m-299 -22 c15 -14 18 -27 15 -70 -7
-80 -16 -86 -166 -93 -150 -6 -140 -2 -381 -158 -154 -100 -242 -147 -225
-119 11 18 -119 -1 -135 -20 -9 -12 -12 -13 -9 -3 5 18 23 28 74 41 45 11 131
80 144 116 6 16 23 27 52 34 65 17 181 75 228 115 23 19 60 40 83 45 23 6 53
14 67 18 14 4 34 24 46 46 25 44 43 57 94 67 47 10 89 3 113 -19z m2542 0 c38
-19 108 -67 129 -88 24 -24 19 -34 -16 -34 -42 0 -125 48 -166 95 -50 56 -27
68 53 27z m-388 -29 c36 -17 203 -174 203 -191 0 -24 -28 -10 -125 63 -54 41
-108 78 -119 81 -28 8 -66 44 -66 61 0 17 57 9 107 -14z m-420 -145 c48 -11
54 -10 66 6 21 28 53 15 122 -49 l60 -55 -48 0 c-27 0 -72 10 -105 24 -31 13
-75 29 -97 36 -65 20 -105 41 -99 52 4 5 16 7 28 3 11 -3 45 -11 73 -17z
m1230 -124 c40 -30 105 -82 145 -117 46 -40 92 -70 126 -83 30 -10 79 -39 110
-64 31 -25 72 -56 90 -68 l32 -23 0 -95 c0 -52 -4 -94 -9 -94 -14 0 -28 23
-36 59 -15 73 -215 250 -382 339 -47 26 -107 69 -143 104 -62 61 -120 133
-120 150 0 14 104 -46 187 -108z m-2237 81 c30 -8 72 -15 94 -15 74 0 165 -44
142 -68 -11 -10 -504 -14 -605 -5 -48 5 -86 13 -88 20 -4 12 114 42 247 63 41
7 82 13 90 15 35 7 68 4 120 -10z m-529 -85 c-13 -11 -28 -20 -35 -20 -6 1 0
7 13 14 23 13 23 14 5 19 -13 3 -9 5 11 6 l30 0 -24 -19z m913 11 c12 -18 -13
-60 -39 -67 -28 -7 -75 9 -75 25 0 14 62 51 87 51 12 0 24 -4 27 -9z m-1011
-35 c-4 -20 -16 -29 -56 -42 -29 -9 -76 -29 -107 -43 -48 -22 -67 -25 -156
-23 -93 1 -104 -1 -135 -23 -48 -36 -50 -31 -4 7 22 18 61 53 88 77 l48 44
112 9 c61 5 132 12 157 17 55 9 59 8 53 -23z m50 27 c-7 -2 -19 -2 -25 0 -7 3
-2 5 12 5 14 0 19 -2 13 -5z m1115 -19 c82 -17 112 -29 112 -45 0 -18 -192 30
-205 51 -8 13 3 13 93 -6z m1288 -19 c9 -14 14 -28 11 -32 -8 -7 -35 14 -48
39 -16 29 17 23 37 -7z m-2416 5 c-8 -5 -19 -10 -25 -10 -5 0 -3 5 5 10 8 5
20 10 25 10 6 0 3 -5 -5 -10z m3675 0 c3 -6 -1 -7 -9 -4 -18 7 -21 14 -7 14 6
0 13 -4 16 -10z m720 -40 c15 -22 26 -42 24 -44 -2 -2 -19 19 -37 46 -19 28
-30 48 -24 45 5 -4 21 -24 37 -47z m-2394 9 l24 -20 -25 7 c-14 3 -32 12 -40
20 -25 24 14 18 41 -7z m-573 -25 c54 -46 54 -58 0 -50 -72 11 -118 26 -118
38 0 20 32 48 55 48 12 0 40 -16 63 -36z m2346 -12 c16 -12 25 -22 20 -22 -5
0 -23 13 -39 28 -34 30 -25 27 19 -6z m206 -18 c0 -2 -9 0 -20 6 -11 6 -20 13
-20 16 0 2 9 0 20 -6 11 -6 20 -13 20 -16z m-415 -44 c31 -16 65 -30 74 -30
19 0 44 -24 54 -53 6 -17 14 -21 87 -48 19 -7 60 -38 90 -69 30 -30 84 -70
120 -89 36 -19 78 -45 93 -58 16 -12 36 -23 45 -23 32 0 97 -42 207 -135 61
-50 119 -97 131 -103 11 -6 47 -9 80 -7 56 4 51 1 -24 -11 l-34 -5 4 -60 c1
-32 1 -59 -2 -59 -8 0 -147 86 -177 110 -14 11 -36 20 -49 20 -29 0 -31 -23
-10 -90 8 -25 20 -64 26 -88 7 -29 30 -63 73 -110 34 -37 52 -59 41 -49 -17
14 -41 17 -139 17 l-119 0 -26 32 c-25 30 -33 33 -104 39 -86 7 -111 20 -80
43 18 14 18 17 4 43 -19 34 -106 84 -140 81 -23 -3 -25 -7 -25 -55 1 -44 6
-58 30 -84 17 -17 47 -40 68 -50 63 -33 49 -49 -41 -49 -105 0 -115 13 -186
227 -40 121 -91 209 -149 260 -29 25 -37 40 -37 66 0 19 -7 40 -15 47 -9 7
-26 27 -38 44 -13 19 -1 11 29 -20 38 -39 59 -52 89 -57 22 -4 63 -21 90 -38
28 -18 73 -38 102 -45 29 -6 64 -21 79 -33 48 -38 164 -20 164 25 0 31 -38 54
-90 54 -47 0 -50 2 -50 25 0 30 -57 70 -151 105 -49 19 -64 21 -85 11 -23 -10
-26 -8 -42 20 -9 17 -32 53 -49 80 -30 44 -33 55 -33 124 l0 75 29 0 c16 0 55
-13 86 -30z m486 16 c19 -8 59 -19 90 -24 80 -15 163 -58 228 -118 31 -28 71
-61 90 -72 33 -20 35 -23 32 -74 -3 -53 -3 -53 56 -108 61 -57 49 -51 -23 12
-60 51 -132 91 -172 95 -21 1 -50 15 -76 36 -54 45 -134 85 -196 98 -32 7 -68
25 -100 50 -27 21 -54 39 -60 39 -13 0 -96 56 -105 70 -10 16 197 12 236 -4z
m441 -25 c-3 -29 2 -39 35 -68 l38 -34 -52 36 c-47 33 -93 82 -93 100 0 3 17
5 38 3 36 -3 37 -4 34 -37z m-5402 15 c0 -2 -12 -11 -27 -20 l-28 -17 24 20
c23 21 31 25 31 17z m472 -21 c-30 -14 -68 -35 -85 -47 -18 -11 -25 -14 -17
-5 20 21 121 77 140 77 8 0 -9 -11 -38 -25z m3858 -58 l22 -32 -25 29 c-14 15
-38 39 -53 53 l-29 25 32 -22 c18 -11 42 -35 53 -53z m-2660 20 c63 -20 141
-42 172 -48 58 -10 110 -41 95 -55 -4 -5 -38 0 -75 9 -168 43 -496 46 -787 7
-223 -30 -336 -43 -339 -39 -2 2 7 21 20 42 l24 37 110 0 c91 0 110 3 110 15
0 9 -10 15 -27 16 -69 3 48 21 152 24 63 2 131 10 160 19 36 11 81 15 160 13
95 -3 126 -8 225 -40z m1865 33 c11 -17 -5 -32 -21 -19 -8 6 -14 15 -14 20 0
12 27 11 35 -1z m-3668 -22 c-3 -8 -6 -5 -6 6 -1 11 2 17 5 13 3 -3 4 -12 1
-19z m998 2 c10 -11 32 -24 49 -29 24 -7 26 -9 9 -10 -12 -1 -36 11 -54 26
-21 18 -34 23 -37 15 -2 -6 -12 -22 -23 -34 -17 -20 -17 -19 2 15 24 43 29 44
54 17z m-925 6 c0 -2 -8 -10 -17 -17 -16 -13 -17 -12 -4 4 13 16 21 21 21 13z
m410 -1 c0 -2 -18 -14 -40 -25 -22 -11 -40 -18 -40 -15 0 2 17 13 38 24 42 23
42 23 42 16z m-450 -29 c0 -2 -8 -10 -17 -17 -16 -13 -17 -12 -4 4 13 16 21
21 21 13z m-40 -26 c0 -11 -4 -20 -9 -20 -5 0 -7 9 -4 20 3 11 7 20 9 20 2 0
4 -9 4 -20z m483 -2 c-4 -7 -53 -56 -108 -109 -68 -65 -121 -107 -165 -129
-136 -68 -211 -134 -258 -227 -14 -26 -40 -54 -69 -74 -78 -52 -161 -138 -218
-225 -29 -45 -67 -90 -85 -100 -23 -14 -43 -44 -79 -119 -27 -55 -66 -122 -88
-150 -79 -100 -183 -301 -204 -393 -5 -26 -21 -63 -34 -82 -30 -45 -44 -106
-45 -197 0 -39 -4 -83 -10 -98 -9 -24 -13 -26 -67 -23 l-58 3 -3 39 c-3 30 7
62 42 135 50 108 65 162 66 237 0 75 14 104 106 226 46 60 90 131 99 156 47
133 87 188 182 249 65 41 66 43 266 338 81 120 157 198 257 265 82 54 113 82
161 146 29 40 49 55 85 68 26 9 58 26 71 38 18 17 33 21 82 19 33 -1 62 3 66
9 3 5 8 10 11 10 3 0 1 -6 -3 -12z m3410 -83 c32 -25 80 -61 107 -79 27 -18
124 -104 215 -190 l165 -158 0 -51 c0 -44 5 -56 33 -87 l32 -35 -38 35 c-22
19 -132 129 -245 244 -114 114 -235 228 -269 253 -66 47 -133 118 -133 140 0
19 63 -15 133 -72z m1734 -12 c-3 -10 -5 -2 -5 17 0 19 2 27 5 18 2 -10 2 -26
0 -35z m-3327 9 c13 -11 20 -24 16 -30 -8 -13 -66 -16 -103 -6 -22 6 -31 33
-16 47 13 14 81 6 103 -11z m684 -13 c30 -24 34 -49 8 -49 -27 0 -62 29 -62
51 0 25 21 24 54 -2z m-2246 -21 c-3 -7 -12 -14 -21 -16 -12 -2 -15 1 -11 12
7 19 38 22 32 4z m3677 -28 c10 -11 16 -20 13 -20 -3 0 -13 9 -23 20 -10 11
-16 20 -13 20 3 0 13 -9 23 -20z m-1895 -24 c90 -37 111 -48 124 -68 22 -35
-7 -39 -71 -9 -51 24 -138 58 -203 78 -12 4 -11 7 5 19 25 19 61 14 145 -20z
m3071 16 c-7 -2 -18 1 -23 6 -8 8 -4 9 13 5 13 -4 18 -8 10 -11z m-3711 -62
c36 -13 84 -24 107 -25 28 -1 73 -18 132 -49 50 -25 127 -60 173 -77 46 -17
124 -56 173 -88 50 -32 123 -75 162 -96 66 -34 153 -110 153 -134 0 -28 -32
-15 -143 57 -316 206 -379 240 -561 297 -153 49 -252 65 -451 71 -206 8 -352
-5 -511 -45 -65 -16 -139 -32 -164 -36 l-45 -6 49 50 c71 72 125 92 276 102
69 4 229 6 355 4 209 -2 236 -5 295 -25z m-1245 11 c7 -12 -8 -25 -67 -59 -26
-15 -103 -72 -170 -128 -68 -56 -138 -108 -155 -117 -17 -9 -63 -59 -102 -110
-38 -52 -134 -170 -211 -263 -78 -93 -148 -182 -157 -197 -8 -16 -41 -64 -73
-108 -32 -43 -68 -105 -80 -136 -12 -32 -34 -83 -50 -114 -16 -31 -38 -93 -50
-138 -26 -105 -54 -174 -91 -233 -17 -26 -35 -63 -40 -82 -10 -34 -12 -36 -55
-36 -43 0 -44 1 -33 22 7 12 9 42 6 73 -6 63 0 75 63 115 60 38 70 54 70 112
1 152 71 297 228 473 34 38 74 95 89 125 14 30 45 82 68 115 24 33 53 84 65
113 20 46 33 60 91 98 62 41 185 157 300 281 32 36 62 56 103 72 32 12 77 37
100 55 81 66 136 90 151 67z m2135 -86 c7 -9 10 -18 6 -22 -7 -8 -56 17 -56
29 0 14 37 9 50 -7z m1647 9 c-3 -3 -12 -4 -19 -1 -8 3 -5 6 6 6 11 1 17 -2
13 -5z m68 -24 c3 -6 -1 -7 -9 -4 -18 7 -21 14 -7 14 6 0 13 -4 16 -10z m-575
-188 c124 -123 151 -162 112 -162 -29 0 -262 249 -262 281 0 23 30 0 150 -119z
m-3183 45 c-18 -29 -104 -87 -128 -87 -29 0 -23 36 10 59 40 29 113 61 124 54
4 -3 2 -15 -6 -26z m1029 4 c51 -5 116 -16 145 -25 30 -9 73 -21 96 -26 24 -6
55 -22 70 -36 23 -21 24 -24 8 -20 -11 3 -85 15 -165 26 -180 27 -303 30 -347
11 -28 -13 -37 -13 -85 3 l-53 18 -105 -30 c-58 -16 -126 -35 -153 -42 -26 -7
-67 -25 -92 -41 -50 -32 -120 -43 -120 -19 0 16 216 128 299 154 95 30 336 43
502 27z m3905 -11 c6 0 7 5 3 11 -4 7 -2 10 5 8 7 -3 12 -9 12 -14 -1 -15 -34
-12 -37 3 -1 7 0 8 3 2 2 -5 9 -10 14 -10z m-2642 -33 c6 -8 8 -17 5 -20 -9
-8 -44 11 -44 23 0 15 26 12 39 -3z m1426 -89 l50 -52 -51 44 c-44 38 -63 60
-51 60 1 0 25 -23 52 -52z m-3915 6 c0 -9 -78 -96 -173 -193 -200 -204 -216
-224 -293 -357 -31 -54 -74 -124 -94 -154 -55 -81 -89 -154 -100 -212 -6 -28
-30 -95 -55 -150 -38 -82 -60 -141 -101 -275 -2 -7 -17 -13 -34 -13 l-31 0 7
53 c3 28 12 79 20 112 17 76 137 317 246 500 46 77 103 172 125 210 55 94 175
235 321 378 116 113 162 142 162 101z m4046 -155 c6 -30 16 -64 22 -76 20 -36
14 -43 -33 -43 -58 0 -65 14 -65 131 l0 92 32 -25 c26 -20 35 -37 44 -79z
m1059 3 c40 -48 26 -39 -30 20 -27 28 -38 43 -23 32 14 -12 39 -35 53 -52z
m-4785 44 c0 -14 -67 -70 -162 -134 -56 -38 -72 -41 -62 -9 4 12 10 37 13 55
5 30 12 35 71 56 36 13 76 28 90 34 35 15 50 14 50 -2z m3631 -48 c15 -28 5
-21 -21 15 -15 20 -17 27 -6 18 9 -8 22 -23 27 -33z m-2663 8 c89 -31 272
-116 272 -128 0 -15 -71 -8 -118 12 -26 11 -109 31 -186 45 -76 14 -148 28
-160 31 -13 3 -53 -6 -92 -21 -100 -39 -123 -46 -184 -55 -30 -4 -69 -14 -87
-21 -26 -10 -38 -10 -71 0 -47 16 -97 9 -157 -21 -72 -37 -249 -156 -304 -205
-78 -69 -180 -191 -201 -239 -19 -43 -76 -114 -91 -114 -18 0 -9 28 21 65 17
21 30 46 30 57 0 63 166 278 215 278 9 0 23 10 33 21 9 12 55 46 102 77 47 30
98 66 113 78 16 13 40 24 53 24 14 0 62 18 107 39 56 27 103 42 147 46 36 4
76 15 90 24 21 13 48 16 155 13 75 -1 136 2 145 8 26 17 93 11 168 -14z m1944
-73 c35 -39 71 -93 65 -99 -5 -5 -84 81 -98 109 -15 26 4 20 33 -10z m492 -65
c40 -69 118 -182 157 -226 l24 -27 -27 24 c-15 13 -38 39 -50 57 -20 29 -29
34 -63 34 -40 0 -42 2 -68 56 -15 31 -30 76 -34 100 -9 66 17 58 61 -18z m126
-8 c0 -22 -4 -40 -10 -40 -5 0 -10 18 -10 40 0 22 5 40 10 40 6 0 10 -18 10
-40z m716 -17 c-4 -4 -11 -1 -16 7 -16 25 -11 35 7 17 9 -9 13 -20 9 -24z
m-472 11 c3 -8 2 -12 -4 -9 -6 3 -10 10 -10 16 0 14 7 11 14 -7z m214 -10 l27
-27 -32 22 c-18 12 -33 24 -33 27 0 10 13 2 38 -22z m343 -17 c-9 -11 -8 -17
4 -27 8 -7 15 -17 15 -22 0 -6 -8 0 -19 13 -14 18 -16 27 -8 41 6 9 13 15 16
13 2 -3 -1 -11 -8 -18z m399 -54 c0 -7 -58 29 -88 55 -15 13 -1 6 31 -14 31
-20 57 -39 57 -41z m-979 25 c15 -28 5 -21 -21 15 -15 20 -17 27 -6 18 9 -8
22 -23 27 -33z m380 25 c13 -16 12 -17 -3 -4 -10 7 -18 15 -18 17 0 8 8 3 21
-13z m-326 -23 c9 -16 13 -30 11 -30 -3 0 -12 14 -21 30 -9 17 -13 30 -11 30
3 0 12 -13 21 -30z m-1498 -64 l68 -65 -22 -22 c-12 -12 -28 -19 -36 -16 -26
10 -108 167 -87 167 5 0 40 -29 77 -64z m1864 47 c13 -17 13 -17 -6 -3 -11 8
-22 16 -24 17 -2 2 0 3 6 3 6 0 17 -8 24 -17z m-1084 -43 c17 -35 7 -38 -22
-6 -30 32 -31 39 -8 34 10 -2 23 -14 30 -28z m771 -23 l22 -42 -23 27 c-14 17
-34 28 -57 30 -21 2 -36 9 -38 18 -2 12 5 15 35 12 33 -3 41 -9 61 -45z
m-4218 26 c0 -5 -15 -20 -33 -35 -19 -14 -52 -57 -75 -95 -22 -37 -56 -83 -76
-101 -38 -35 -150 -253 -160 -311 -3 -18 -19 -49 -36 -68 -16 -18 -30 -42 -30
-51 0 -17 -32 -105 -60 -164 -23 -49 -33 -32 -27 40 11 116 51 208 200 459 53
89 166 245 226 311 19 20 71 31 71 15z m3847 -94 c34 -45 41 -49 75 -47 34 2
43 -4 105 -68 38 -38 86 -97 106 -131 33 -54 37 -68 37 -127 l0 -67 -28 15
c-19 10 -31 27 -39 58 -7 24 -29 66 -51 93 -22 28 -47 64 -55 81 -9 18 -39 46
-66 63 -38 23 -52 39 -60 66 -5 19 -29 59 -53 88 -23 28 -35 46 -26 39 10 -8
34 -36 55 -63z m314 -43 c5 -6 9 -16 9 -24 0 -11 -3 -12 -13 -3 -9 7 -14 33
-14 73 0 56 0 58 4 13 2 -27 8 -54 14 -59z m-2754 48 c75 -23 84 -28 63 -35
-32 -9 -167 -9 -200 0 -26 7 -36 31 -26 58 8 19 42 15 163 -23z m845 1 c40
-27 43 -32 29 -54 -7 -11 -13 -11 -32 -1 -38 20 -99 71 -99 82 0 17 60 0 102
-27z m-1187 11 c37 -16 63 -52 48 -67 -8 -8 -158 -48 -281 -75 l-24 -5 28 51
c48 88 147 130 229 96z m2466 -12 c12 -14 11 -16 -5 -13 -11 2 -21 10 -24 17
-5 17 13 15 29 -4z m-2981 -43 c0 -23 -45 -61 -71 -61 -28 0 -23 14 16 49 41
36 55 39 55 12z m3703 -105 c15 -26 23 -44 17 -41 -6 3 -17 21 -26 38 -9 18
-28 43 -42 56 -26 23 -26 24 -2 9 14 -9 37 -37 53 -62z m-2572 54 c26 -15 24
-30 -5 -30 -25 0 -51 22 -39 33 9 10 21 9 44 -3z m1629 -93 c0 -6 -11 0 -25
13 -14 13 -25 28 -25 33 0 6 11 0 25 -13 14 -13 25 -28 25 -33z m-2538 -24
c-17 -26 -37 -64 -45 -84 -24 -59 -137 -141 -137 -99 0 23 43 94 83 138 45 48
117 105 125 97 2 -2 -9 -26 -26 -52z m1035 42 c3 -9 3 -19 -1 -22 -8 -9 -37
18 -30 28 8 14 24 11 31 -6z m1923 -70 c30 -28 62 -56 71 -61 8 -5 37 -40 64
-79 27 -38 88 -117 135 -175 48 -58 105 -129 128 -158 l42 -54 0 -107 c0 -105
1 -108 24 -119 14 -6 30 -21 36 -34 l11 -23 -18 21 c-10 12 -29 27 -41 34 -28
14 -66 96 -76 162 -7 48 -36 95 -109 178 -21 25 -47 61 -57 80 -10 19 -55 70
-99 114 -85 82 -201 243 -201 278 0 24 6 21 90 -57z m-3321 36 c-8 -10 -42
-56 -76 -100 -37 -48 -67 -98 -73 -124 -16 -64 -57 -168 -82 -207 l-23 -35 -3
28 c-4 33 34 171 79 288 39 100 76 145 138 163 53 16 59 14 40 -13z m2516 -34
c59 -44 70 -57 73 -86 2 -20 -1 -32 -7 -30 -15 6 -161 151 -161 161 0 19 29 5
95 -45z m480 -60 c17 -31 49 -84 72 -117 23 -34 45 -77 49 -97 7 -39 -5 -103
-20 -106 -18 -3 -46 60 -60 132 -10 51 -24 86 -50 124 -39 57 -61 133 -35 125
8 -2 28 -30 44 -61z m-358 -80 c-4 -7 -6 -6 -6 4 -1 9 -8 22 -16 29 -8 7 -15
17 -15 23 0 5 9 -2 21 -17 11 -14 18 -32 16 -39z m-1792 43 c9 -15 -36 -90
-54 -90 -18 0 -81 59 -81 76 0 20 124 33 135 14z m2977 -87 c16 -24 27 -43 24
-43 -8 0 -76 103 -76 115 0 5 6 1 12 -10 6 -11 24 -39 40 -62z m-2122 28 c12
-23 -3 -37 -17 -18 -22 27 -24 37 -9 37 8 0 20 -9 26 -19z m570 -31 c13 -24
13 -110 0 -130 -9 -13 -11 -13 -19 0 -16 23 -44 148 -36 159 8 14 41 -3 55
-29z m-1094 -18 c52 -38 68 -58 54 -67 -12 -8 -51 15 -92 53 -53 49 -24 59 38
14z m-595 -10 c-12 -23 -81 -86 -111 -102 -34 -18 -40 -8 -21 36 14 30 30 46
62 62 56 28 84 29 70 4z m3210 -9 c13 -16 12 -17 -3 -4 -10 7 -18 15 -18 17 0
8 8 3 21 -13z m-3651 -60 c-16 -32 -35 -77 -40 -100 -14 -54 -40 -59 -40 -8 0
58 63 165 97 165 10 0 5 -17 -17 -57z m3699 -20 c17 -31 29 -58 27 -60 -1 -2
-17 24 -35 57 -18 33 -30 60 -27 60 2 0 18 -26 35 -57z m-4382 -76 c-35 -76
-57 -103 -57 -70 1 39 79 180 88 155 2 -6 -12 -44 -31 -85z m3361 -10 c19 -37
23 -54 17 -87 l-7 -42 -20 28 c-48 71 -93 176 -80 188 11 12 68 -43 90 -87z
m-1342 22 c20 -12 34 -29 34 -40 0 -27 -14 -24 -55 12 -56 49 -42 67 21 28z
m-348 -143 c186 -94 342 -188 342 -207 0 -25 -51 0 -175 86 -136 93 -152 98
-345 103 -209 5 -252 23 -137 56 30 9 62 25 72 36 10 11 27 20 37 20 11 0 103
-43 206 -94z m1241 -26 c52 -102 71 -177 71 -275 0 -64 -15 -91 -29 -53 -17
45 -30 101 -40 179 -7 50 -23 102 -47 152 -33 69 -40 118 -15 102 5 -3 32 -50
60 -105z m1042 83 c17 -15 38 -43 46 -63 19 -44 71 -117 141 -198 l55 -63 -64
3 -64 3 -12 40 c-6 22 -14 53 -18 70 -4 18 -31 53 -69 90 -61 58 -87 108 -71
135 10 16 21 12 56 -17z m-1807 -12 c10 -11 16 -25 14 -31 -4 -14 -48 17 -48
36 0 20 14 18 34 -5z m1550 -32 c15 -12 38 -44 53 -72 26 -54 76 -131 113
-179 l22 -28 -51 0 -51 0 -64 128 c-75 150 -83 172 -63 172 8 0 26 -9 41 -21z
m-1104 -40 c44 -55 50 -79 22 -79 -33 0 -82 70 -82 116 0 26 19 14 60 -37z
m852 -36 c15 -16 38 -53 53 -83 14 -30 33 -67 41 -82 8 -14 14 -29 14 -32 0
-14 -58 -5 -73 12 -25 28 -100 190 -92 201 11 18 30 12 57 -16z m-3507 -3 c9
-27 -3 -60 -21 -60 -9 0 -14 11 -14 33 0 48 23 66 35 27z m4426 -37 c23 -32
36 -53 28 -46 -17 14 -83 103 -76 103 3 0 24 -26 48 -57z m-3789 5 c3 -7 -4
-26 -14 -43 -10 -16 -18 -40 -18 -53 0 -28 -17 -62 -30 -62 -15 0 -12 66 5
107 24 58 48 79 57 51z m-2175 -50 c-3 -7 -5 -2 -5 12 0 14 2 19 5 13 2 -7 2
-19 0 -25z m55 -17 c-15 -27 -28 -48 -30 -46 -6 6 43 95 53 95 2 0 -9 -22 -23
-49z m285 12 c-3 -10 -5 -4 -5 12 0 17 2 24 5 18 2 -7 2 -21 0 -30z m183 -8
c-6 -30 -8 -33 -9 -13 -1 25 8 62 14 56 2 -2 -1 -21 -5 -43z m372 23 c-7 -7
-13 -28 -13 -47 -2 -33 -2 -34 -6 -7 -4 28 15 81 26 71 2 -3 -1 -11 -7 -17z
m45 0 c-3 -8 -6 -5 -6 6 -1 11 2 17 5 13 3 -3 4 -12 1 -19z m293 2 c0 -5 -7
-10 -16 -10 -8 0 -12 5 -9 10 3 6 10 10 16 10 5 0 9 -4 9 -10z m-973 -22 c-3
-8 -6 -5 -6 6 -1 11 2 17 5 13 3 -3 4 -12 1 -19z m348 -276 c-5 -46 -12 -69
-27 -82 -42 -36 -50 -46 -79 -90 -15 -25 -38 -57 -50 -71 -41 -51 -69 -369
-33 -383 52 -20 75 0 86 75 4 35 21 88 37 119 16 30 32 80 35 110 14 111 45
162 84 141 34 -18 37 -48 8 -89 -14 -20 -30 -58 -35 -84 -9 -38 -31 -313 -31
-383 0 -18 -5 -20 -57 -16 -54 3 -56 2 -43 -15 14 -18 14 -18 -7 -1 -11 10
-42 25 -67 32 -50 15 -54 13 -67 -39 -7 -31 -7 -31 -8 -3 -1 27 -2 27 -65 27
l-65 0 -4 -37 c-2 -21 -3 -6 -2 32 1 59 8 85 44 162 23 51 47 119 52 150 14
73 96 335 122 388 11 22 34 58 51 80 28 36 31 46 31 112 l0 73 43 0 42 0 2 48
c1 26 4 -7 6 -73 2 -66 0 -149 -3 -183z m322 236 c-3 -7 -5 -2 -5 12 0 14 2
19 5 13 2 -7 2 -19 0 -25z m860 -15 c-3 -10 -5 -2 -5 17 0 19 2 27 5 18 2 -10
2 -26 0 -35z m2244 -98 c11 -16 19 -39 19 -50 0 -19 0 -19 -19 0 -24 25 -91
135 -91 149 1 13 65 -57 91 -99z m-3696 63 c-4 -13 -20 -50 -35 -83 -37 -79
-75 -211 -101 -354 -11 -64 -29 -136 -40 -161 -12 -27 -24 -86 -29 -150 -12
-129 -15 -142 -47 -207 -15 -31 -23 -63 -21 -78 3 -13 1 -22 -3 -19 -15 9 -10
43 17 106 26 62 26 62 24 323 -1 143 -2 272 -1 286 0 14 18 45 38 69 31 35 38
53 44 106 5 37 20 87 39 123 l30 61 46 0 c42 0 45 -1 39 -22z m585 -2 c0 -13
-4 -47 -10 -75 -5 -28 -16 -133 -25 -232 -8 -99 -20 -190 -26 -201 -15 -28 -4
-75 27 -120 26 -37 26 -37 15 -140 -21 -188 -15 -174 -66 -170 -39 4 -44 1
-48 -20 -3 -12 -4 -3 -1 22 13 140 14 173 1 255 -15 94 -15 98 24 193 11 26
11 38 0 65 -39 95 -55 288 -30 354 18 49 69 93 106 93 28 0 33 -4 33 -24z
m-913 -28 c-3 -8 -6 -5 -6 6 -1 11 2 17 5 13 3 -3 4 -12 1 -19z m3291 1 c29
-8 54 -18 55 -24 1 -5 -36 -16 -83 -23 -200 -31 -224 -41 -237 -102 -8 -44
-19 -37 -27 17 -8 58 9 79 98 124 66 33 92 34 194 8z m1832 -24 c14 -19 14
-19 -2 -6 -10 7 -18 18 -18 24 0 6 1 8 3 6 1 -2 9 -13 17 -24z m91 -60 c12
-24 -21 14 -52 60 -18 25 -16 25 10 -5 17 -19 36 -44 42 -55z m-2811 48 c0
-21 -3 -24 -9 -14 -5 8 -7 20 -4 28 8 21 13 15 13 -14z m-2413 -30 c-3 -10 -5
-2 -5 17 0 19 2 27 5 18 2 -10 2 -26 0 -35z m1183 33 c0 -8 -4 -18 -10 -21 -5
-3 -10 3 -10 14 0 12 5 21 10 21 6 0 10 -6 10 -14z m4705 -40 c6 -4 1 -4 -10
2 -11 6 -29 21 -40 34 -19 22 -19 22 10 -2 17 -14 35 -29 40 -34z m-355 -13
c14 -7 19 -13 11 -13 -20 0 -61 40 -61 59 0 10 5 6 13 -9 7 -13 24 -30 37 -37z
m180 22 c0 -5 -5 -3 -10 5 -5 8 -10 20 -10 25 0 6 5 3 10 -5 5 -8 10 -19 10
-25z m300 -33 c0 -4 -9 7 -20 23 -11 17 -20 35 -20 40 0 6 9 -5 20 -23 11 -18
20 -36 20 -40z m-4500 32 c12 -32 -1 -89 -21 -89 -15 0 -26 73 -15 101 8 22
26 16 36 -12z m1931 6 c10 -6 19 -15 19 -21 0 -5 -13 -3 -30 6 -16 9 -30 18
-30 20 0 8 20 6 41 -5z m1729 -21 c15 -28 5 -23 -15 7 -9 15 -12 23 -6 20 6
-4 16 -16 21 -27z m-3989 -20 l-9 -34 -1 31 c-1 17 2 34 6 37 12 13 14 -1 4
-34z m4236 9 c-3 -7 -5 -2 -5 12 0 14 2 19 5 13 2 -7 2 -19 0 -25z m-141 -50
c15 -18 40 -61 56 -95 21 -47 38 -69 67 -88 22 -13 42 -29 46 -35 4 -6 -5 -45
-20 -87 -23 -66 -25 -83 -16 -118 5 -22 9 -61 8 -86 -2 -37 3 -52 28 -83 61
-77 67 -91 56 -133 -6 -21 -17 -47 -26 -58 -15 -20 -15 -20 -34 2 -32 38 -65
177 -67 286 -2 85 -6 104 -29 143 -14 24 -31 72 -37 107 -7 42 -24 85 -53 132
-45 75 -75 131 -75 140 0 3 15 5 34 5 26 0 41 -8 62 -32z m304 2 c3 -14 17
-30 30 -37 34 -17 40 -32 51 -130 7 -68 16 -97 36 -125 14 -21 29 -59 34 -84
5 -26 23 -69 40 -96 17 -26 35 -67 41 -91 5 -23 21 -55 36 -70 22 -23 27 -37
26 -76 -4 -103 -104 -219 -104 -120 0 36 -13 64 -47 101 -21 22 -27 42 -34
111 -14 144 -128 419 -223 541 -25 33 -46 63 -46 67 0 4 -3 15 -6 24 -6 14 3
16 77 13 79 -3 83 -4 89 -28z m-4380 -59 c0 -55 -4 -73 -21 -92 l-21 -24 16
25 c11 16 16 48 16 92 0 38 2 68 5 68 3 0 5 -31 5 -69z m-48 7 c-9 -9 -12
-104 -12 -367 0 -195 -2 -352 -4 -350 -8 7 -57 236 -58 271 -1 18 8 59 20 90
19 51 20 63 10 112 -10 45 -9 66 2 104 7 26 15 65 18 87 4 37 17 65 30 65 3 0
1 -5 -6 -12z m2681 -25 c28 -17 -96 -33 -137 -17 -23 9 -20 22 7 27 25 6 116
-1 130 -10z m-2069 -35 c16 -23 20 -66 10 -105 -10 -37 -22 -27 -33 27 -20 93
-10 126 23 78z m1691 -47 c36 -17 65 -35 65 -40 0 -9 -132 49 -149 65 -14 13
28 0 84 -25z m892 -74 c59 -118 80 -230 49 -272 -12 -17 -14 -16 -24 16 -6 19
-23 90 -37 159 -14 69 -28 133 -31 144 -11 35 16 6 43 -47z m-1613 -79 c27
-73 70 -174 97 -224 27 -50 49 -94 49 -98 0 -35 -94 65 -130 139 -27 53 -80
251 -80 298 0 42 19 8 64 -115z m1858 70 c2 -13 1 -39 -2 -58 -5 -34 -6 -34
-18 -13 -13 23 -16 75 -5 86 12 13 21 7 25 -15z m-4505 -60 c-3 -8 -6 -5 -6 6
-1 11 2 17 5 13 3 -3 4 -12 1 -19z m1112 -83 c-1 -16 -2 -15 -8 5 -5 14 -15
40 -24 57 -10 18 -17 36 -17 40 1 17 49 -83 49 -102z m2144 45 c38 -44 93
-140 80 -140 -13 0 -143 158 -143 173 0 20 33 2 63 -33z m-3283 -37 c-23 -41
-23 -38 0 20 8 21 16 34 18 28 2 -5 -6 -27 -18 -48z m1418 44 c20 -23 32 -186
31 -417 0 -162 -3 -218 -10 -200 -11 26 -25 55 -63 125 -46 87 -27 505 23 505
5 0 13 -6 19 -13z m-291 -129 c-2 -13 -4 -5 -4 17 -1 22 1 32 4 23 2 -10 2
-28 0 -40z m-1150 -10 c-2 -13 -4 -5 -4 17 -1 22 1 32 4 23 2 -10 2 -28 0 -40z
m3130 -75 c116 -176 150 -260 68 -169 -35 40 -155 248 -155 270 0 22 25 -7 87
-101z m1979 -101 c-16 -53 -16 -60 -1 -95 11 -27 13 -43 5 -56 -5 -11 -15 -42
-21 -70 -10 -47 -41 -102 -52 -91 -3 3 -1 64 4 135 4 72 9 186 9 255 l2 125
35 -73 36 -73 -17 -57z m-3339 148 c7 -14 13 -50 13 -81 0 -30 9 -105 19 -165
11 -60 25 -152 31 -204 12 -107 24 -150 70 -265 30 -74 31 -84 21 -124 -11
-41 -10 -47 24 -113 20 -38 45 -103 55 -144 40 -155 181 -426 246 -472 63 -43
83 -65 113 -122 18 -34 31 -64 28 -67 -12 -11 -250 251 -347 382 -23 31 -58
66 -80 80 -27 17 -40 34 -45 57 -4 18 -22 80 -40 138 -18 58 -36 116 -40 130
-4 14 -10 107 -14 208 -7 167 -9 184 -29 205 -29 31 -61 157 -72 287 -22 242
-23 256 -11 279 15 28 42 24 58 -9z m-592 -72 l4 -53 -8 47 c-5 25 -12 57 -16
70 -5 19 -4 20 5 6 6 -10 13 -42 15 -70z m-1214 30 l-30 -43 0 -156 0 -156 82
-7 c101 -9 103 -9 204 0 l82 7 4 36 c8 56 -3 -236 -14 -399 -5 -80 -18 -182
-30 -227 -22 -91 -24 -83 34 -177 32 -51 29 -66 -11 -66 -40 0 -71 -26 -97
-83 -26 -56 -29 -53 -38 47 -4 41 -11 54 -40 80 -40 35 -67 83 -67 119 0 12
13 41 28 63 47 64 47 70 -3 119 -27 25 -45 52 -45 65 0 18 -3 20 -14 11 -22
-18 -46 -98 -46 -151 0 -59 -18 -84 -91 -120 -32 -17 -66 -41 -75 -55 -9 -14
-20 -25 -25 -25 -21 0 -6 40 29 81 99 115 103 140 46 271 -63 142 -63 153 6
160 l35 3 -1 50 c-1 28 -3 109 -5 182 l-4 131 28 30 c25 25 26 30 12 42 -17
14 -20 66 -5 105 9 24 69 105 77 105 2 0 -9 -19 -26 -42z m2115 -23 c3 -20 4
-78 2 -130 -3 -73 -8 -99 -21 -113 -30 -29 -39 1 -34 118 5 104 17 160 36 160
6 0 13 -16 17 -35z m-2358 -47 c3 -38 -15 -62 -41 -52 -28 10 -31 44 -6 70 29
31 43 26 47 -18z m3906 -29 c33 -26 33 -39 1 -39 -27 0 -99 33 -110 50 -12 20
81 11 109 -11z m-2463 -16 c-12 -20 -14 -14 -5 12 4 9 9 14 11 11 3 -2 0 -13
-6 -23z m-21 -63 c-5 -22 -8 -27 -9 -13 -1 21 9 56 14 51 2 -2 0 -19 -5 -38z
m-33 -107 c-3 -10 -5 -2 -5 17 0 19 2 27 5 18 2 -10 2 -26 0 -35z m3713 -17
c0 -19 -5 -47 -12 -63 l-12 -28 -4 29 c-5 38 6 96 18 96 6 0 10 -15 10 -34z
m-4063 -8 c-3 -7 -5 -2 -5 12 0 14 2 19 5 13 2 -7 2 -19 0 -25z m80 -20 c-2
-13 -4 -5 -4 17 -1 22 1 32 4 23 2 -10 2 -28 0 -40z m2155 -7 c15 -24 18 -33
8 -29 -8 2 -24 20 -34 38 -26 43 -2 35 26 -9z m-2495 -3 c-3 -8 -6 -5 -6 6 -1
11 2 17 5 13 3 -3 4 -12 1 -19z m1647 -203 c10 -15 15 -29 12 -32 -20 -21 -88
111 -93 182 l-4 50 34 -87 c18 -47 42 -98 51 -113z m3326 156 c0 -32 -16 -49
-31 -34 -12 12 5 63 21 63 5 0 10 -13 10 -29z m520 -29 c0 -10 -11 -29 -24
-41 -21 -19 -24 -20 -30 -6 -3 9 -6 28 -6 41 0 20 5 24 30 24 22 0 30 -5 30
-18z m-236 -18 c10 -25 7 -64 -6 -87 -9 -16 -14 -107 -18 -314 l-5 -293 -26
-26 c-15 -15 -31 -24 -37 -20 -5 3 -13 32 -17 63 -5 42 -14 65 -32 85 l-26 27
36 41 c21 22 37 48 38 58 0 9 4 109 7 222 6 173 10 210 25 233 19 30 52 36 61
11z m-2586 -93 c24 -20 50 -47 57 -61 7 -14 36 -53 64 -88 28 -35 51 -69 51
-75 0 -17 -111 95 -198 201 -86 104 -101 130 -51 88 19 -16 54 -45 77 -65z
m2954 -16 c-2 -14 2 -33 9 -43 13 -15 12 -16 -3 -3 -18 13 -24 51 -11 64 10
11 11 9 5 -18z m187 -9 c18 -19 31 -40 28 -48 -4 -9 -6 -9 -6 3 -1 19 -50 66
-76 72 -20 5 -20 5 1 6 11 0 35 -14 53 -33z m170 -61 c0 -5 -11 10 -24 35 -13
25 -24 50 -24 55 0 6 11 -10 24 -35 13 -25 24 -49 24 -55z m86 85 c3 -6 -1 -7
-9 -4 -18 7 -21 14 -7 14 6 0 13 -4 16 -10z m363 -10 c6 -11 30 -29 51 -40 22
-11 42 -24 46 -29 3 -6 -14 1 -38 14 -44 25 -98 75 -81 75 5 0 15 -9 22 -20z
m352 17 c0 -2 -19 -21 -42 -42 l-42 -40 34 42 c30 35 50 52 50 40z m70 -32
c19 -19 32 -35 29 -35 -3 0 -20 16 -39 35 -19 19 -32 35 -29 35 3 0 20 -16 39
-35z m-2862 -20 c-39 -36 -87 -49 -70 -19 12 22 64 54 87 54 17 -1 14 -6 -17
-35z m1733 -2 c-4 -28 -6 -32 -9 -15 -3 22 3 52 11 52 1 0 1 -17 -2 -37z m385
-5 l29 -33 -32 29 c-18 17 -33 31 -33 33 0 8 8 1 36 -29z m-1358 -30 c16 -16
15 -63 -1 -77 -19 -15 -37 6 -37 44 0 44 14 57 38 33z m743 -134 c5 -54 14
-129 21 -166 10 -62 10 -70 -8 -89 -23 -26 -72 -52 -83 -44 -5 3 -14 27 -21
55 -7 27 -23 60 -36 72 -31 30 -30 38 6 38 23 0 35 7 50 33 26 42 26 46 -15
106 -19 28 -35 52 -35 55 0 2 19 18 42 35 57 42 66 31 79 -95z m286 3 c-6 -66
-26 -117 -47 -117 -6 0 -10 49 -10 122 l0 122 31 -30 c30 -28 31 -31 26 -97z
m625 31 c40 -45 98 -101 128 -125 52 -41 55 -45 55 -88 1 -58 27 -87 82 -89
32 -1 37 2 35 18 -2 10 -15 36 -29 57 -26 39 -25 69 1 69 38 0 96 34 115 66
18 30 25 34 58 32 l38 -1 -37 -4 c-31 -4 -41 -11 -62 -48 -19 -31 -26 -58 -26
-95 0 -28 4 -49 8 -46 5 3 5 -18 0 -47 -8 -54 -10 -131 -9 -429 0 -91 1 -98
20 -98 11 0 22 -4 25 -9 3 -4 -5 -6 -18 -4 -18 4 -29 -2 -41 -21 l-17 -26
-229 0 -229 0 6 38 c7 46 -16 79 -63 88 -29 6 -33 4 -38 -22 -4 -16 -14 -46
-23 -66 l-17 -38 -82 0 -82 0 5 88 c8 152 15 193 30 199 9 3 35 -14 64 -41 27
-25 56 -46 64 -46 40 0 149 138 162 205 7 37 -11 78 -50 114 -32 30 -34 61 -5
61 11 0 33 14 47 30 15 17 31 30 37 30 5 0 30 -42 55 -93 35 -72 45 -106 48
-157 6 -86 16 -99 54 -64 32 32 34 48 12 94 -15 30 -15 35 0 66 33 69 11 128
-66 178 -29 19 -84 62 -123 96 -38 34 -90 76 -114 92 -42 30 -45 30 -58 12
-23 -32 -33 -86 -23 -129 19 -80 6 -226 -26 -287 -17 -32 -48 -37 -76 -11 -13
12 -18 31 -18 73 0 32 -7 74 -15 94 -14 32 -14 39 0 66 31 60 15 119 -49 178
-20 19 -36 39 -36 46 0 7 -11 23 -25 36 -14 13 -25 27 -25 32 0 4 35 8 78 8
l77 0 30 -47 c44 -69 58 -74 96 -36 28 27 30 34 22 60 l-10 28 98 -3 98 -3 73
-81z m332 38 c24 -40 34 -76 21 -76 -2 0 -34 12 -70 27 l-65 27 -31 -23 c-37
-27 -45 -21 -54 42 l-7 47 90 0 90 0 26 -44z m-1077 -28 c-2 -13 -4 -3 -4 22
0 25 2 35 4 23 2 -13 2 -33 0 -45z m-3902 -63 c80 -139 156 -240 291 -385 58
-63 101 -116 95 -118 -16 -5 -89 40 -131 80 -39 37 -257 278 -289 319 -57 73
-83 156 -65 204 13 32 37 8 99 -100z m2492 64 c-6 -50 -20 -79 -38 -79 -16 0
-10 50 11 90 11 22 23 40 27 40 3 0 3 -23 0 -51z m1450 -133 c17 -21 17 -21
-5 0 -14 12 -24 36 -27 60 l-5 39 10 -39 c6 -22 18 -49 27 -60z m-2642 -63
c36 -25 38 -28 18 -31 -28 -4 -59 13 -73 38 -16 29 7 26 55 -7z m1638 3 c11
-27 -12 -77 -70 -157 -31 -44 -60 -82 -64 -85 -12 -7 17 91 45 153 26 55 61
103 77 103 4 0 9 -6 12 -14z m-1409 -64 c43 -25 47 -47 7 -39 -46 9 -131 48
-131 59 0 15 89 0 124 -20z m3526 18 c-8 -5 -19 -10 -25 -10 -5 0 -3 5 5 10 8
5 20 10 25 10 6 0 3 -5 -5 -10z m-1045 -42 c15 -18 37 -52 48 -76 18 -35 19
-46 9 -62 -20 -32 -14 -67 17 -99 28 -28 51 -84 51 -122 0 -9 -9 -36 -20 -60
-11 -24 -20 -54 -20 -67 0 -29 -51 -82 -79 -82 -32 0 -51 38 -51 104 0 49 5
68 32 110 39 64 39 93 0 156 -30 48 -32 58 -32 141 0 49 4 89 9 89 5 0 21 -14
36 -32z m-72 -3 c-13 -9 -27 -23 -32 -33 -6 -9 -11 -12 -11 -5 0 14 39 53 54
53 6 0 1 -7 -11 -15z m-1998 -5 c-3 -5 -13 -10 -21 -10 -8 0 -14 5 -14 10 0 6
9 10 21 10 11 0 17 -4 14 -10z m-165 -20 c0 -5 -9 -10 -19 -10 -11 0 -23 5
-26 10 -4 6 5 10 19 10 14 0 26 -4 26 -10z m1380 -14 c0 -13 3 -38 6 -55 6
-29 2 -37 -47 -82 -29 -27 -56 -49 -60 -49 -14 0 25 131 53 178 23 38 48 42
48 8z m1901 -34 c-7 -2 -18 1 -23 6 -8 8 -4 9 13 5 13 -4 18 -8 10 -11z
m-1110 -28 c9 -11 2 -9 -18 6 -18 13 -33 25 -33 27 0 8 38 -17 51 -33z m1172
29 c-7 -2 -19 -2 -25 0 -7 3 -2 5 12 5 14 0 19 -2 13 -5z m-5147 -56 c43 -30
51 -42 75 -108 15 -41 30 -83 34 -94 14 -34 -61 43 -131 135 -35 47 -64 88
-64 92 0 18 41 6 86 -25z m2754 -96 c0 -14 -41 -41 -52 -35 -14 9 12 44 32 44
11 0 20 -4 20 -9z m1110 -12 c0 -11 -4 -18 -10 -14 -5 3 -7 12 -3 20 7 21 13
19 13 -6z m-5290 -58 c-17 -42 -30 -39 -30 7 0 46 9 58 28 38 13 -12 13 -20 2
-45z m4820 44 c0 -20 -43 -47 -64 -39 -21 8 -20 23 2 40 23 18 62 18 62 -1z
m1748 -12 c-10 -2 -26 -2 -35 0 -10 3 -2 5 17 5 19 0 27 -2 18 -5z m-61 -9
c-3 -3 -12 -4 -19 -1 -8 3 -5 6 6 6 11 1 17 -2 13 -5z m-1451 -58 c13 -34 -47
-99 -75 -82 -11 7 2 61 20 82 15 18 48 18 55 0z m-1805 -37 c42 -30 27 -34
-74 -19 -99 14 -110 20 -72 37 41 18 107 10 146 -18z m3316 5 c-3 -3 -12 -4
-19 -1 -8 3 -5 6 6 6 11 1 17 -2 13 -5z m-4467 -129 c63 -50 163 -125 223
-165 112 -75 154 -119 103 -106 -70 18 -313 189 -432 306 -133 129 -76 111
106 -35z m4423 118 c-7 -2 -21 -2 -30 0 -10 3 -4 5 12 5 17 0 24 -2 18 -5z
m-2133 -63 c0 -50 -62 -94 -77 -54 -3 9 1 31 10 50 13 25 23 34 42 34 21 0 25
-5 25 -30z m301 12 c-13 -24 -63 -73 -69 -67 -5 5 19 45 43 69 22 22 38 21 26
-2z m-3053 -23 c41 -30 49 -48 25 -56 -12 -4 -83 62 -83 77 0 17 14 11 58 -21z
m3769 -26 c-3 -10 -5 -4 -5 12 0 17 2 24 5 18 2 -7 2 -21 0 -30z m-4270 -30
c-3 -10 -5 -4 -5 12 0 17 2 24 5 18 2 -7 2 -21 0 -30z m4068 -20 c-4 -27 -12
-57 -18 -68 -11 -19 -12 -19 -15 4 -5 30 17 111 30 111 7 0 8 -18 3 -47z
m-5115 7 c19 -35 -30 -94 -72 -88 -19 2 -23 8 -21 36 2 62 68 98 93 52z m4510
-16 c0 -8 -39 -64 -63 -91 -24 -27 -41 -20 -26 10 22 43 89 104 89 81z m1927
-96 c-3 -8 -6 -5 -6 6 -1 11 2 17 5 13 3 -3 4 -12 1 -19z m-1087 -12 c0 -19
-49 -76 -50 -58 0 14 37 72 46 72 2 0 4 -6 4 -14z m210 -2 c-8 -8 -17 -32 -21
-52 -6 -35 -7 -35 -8 -7 -1 28 22 75 36 75 3 0 0 -7 -7 -16z m154 7 c4 -5 -2
-7 -13 -4 -12 3 -27 -6 -46 -29 -15 -18 -24 -26 -20 -18 23 45 66 73 79 51z
m80 -30 c-3 -3 -15 6 -27 18 l-22 24 27 -19 c14 -10 24 -21 22 -23z m86 35 c0
-2 -8 -10 -17 -17 -16 -13 -17 -12 -4 4 13 16 21 21 21 13z m112 -3 c-8 -3
-22 -19 -33 -37 -10 -17 -19 -26 -19 -20 0 17 40 64 53 63 8 0 7 -3 -1 -6z
m345 -55 c-2 -13 -4 -3 -4 22 0 25 2 35 4 23 2 -13 2 -33 0 -45z m110 -20 c-2
-13 -4 -3 -4 22 0 25 2 35 4 23 2 -13 2 -33 0 -45z m-4627 6 c90 -56 247 -172
274 -203 31 -34 12 -34 -37 1 -26 18 -84 60 -131 93 -46 33 -109 76 -140 94
-31 19 -56 41 -56 48 0 20 10 16 90 -33z m3928 21 c-3 -3 -9 2 -12 12 -6 14
-5 15 5 6 7 -7 10 -15 7 -18z m-701 -17 c-3 -7 -5 -2 -5 12 0 14 2 19 5 13 2
-7 2 -19 0 -25z m1010 -15 c-3 -10 -5 -4 -5 12 0 17 2 24 5 18 2 -7 2 -21 0
-30z m-300 -5 c-3 -8 -6 -5 -6 6 -1 11 2 17 5 13 3 -3 4 -12 1 -19z m-148 -35
c-35 -47 -85 -93 -100 -93 -26 0 -32 35 -13 75 16 34 18 35 71 35 51 0 54 -1
42 -17z m-3965 -83 c65 -70 78 -90 54 -90 -22 0 -90 44 -109 70 -22 29 -36 90
-21 90 5 0 39 -32 76 -70z m3616 55 c0 -26 -62 -143 -97 -184 -18 -22 -36 -54
-40 -73 -9 -51 -31 -87 -99 -167 -39 -45 -69 -92 -79 -122 -22 -65 -62 -106
-119 -121 -38 -10 -50 -19 -63 -46 -24 -50 -126 -104 -167 -89 -36 14 24 101
77 113 39 8 117 88 154 156 19 35 52 72 101 111 70 57 72 60 72 102 0 24 6 49
13 54 88 69 167 166 167 205 0 19 52 76 69 76 6 0 11 -7 11 -15z m-2713 -31
c108 -36 173 -65 173 -76 0 -13 -52 -6 -110 15 -25 9 -65 22 -89 29 -24 7 -51
23 -59 36 -19 28 -11 28 85 -4z m2416 19 c9 -14 -33 -107 -68 -155 -35 -47
-75 -67 -60 -30 27 71 29 99 7 137 -12 20 -20 41 -17 46 7 11 132 12 138 2z
m-3494 -206 c24 -25 41 -51 39 -59 -6 -15 -118 91 -118 111 0 18 29 -1 79 -52z
m851 -6 c21 -11 35 -25 35 -37 0 -16 -9 -20 -48 -22 -53 -3 -88 13 -108 49
-23 43 45 48 121 10z m2460 -80 c-10 -20 -40 -28 -53 -15 -10 10 14 52 37 62
17 7 22 6 24 -9 2 -10 -2 -27 -8 -38z m-2290 -15 c28 -16 31 -21 17 -24 -17
-3 -97 41 -97 54 0 9 42 -7 80 -30z m-353 -76 c45 -21 107 -55 138 -75 116
-78 490 -215 654 -240 121 -19 180 -31 187 -37 4 -4 -216 -19 -312 -21 -21 0
-43 9 -64 26 -17 15 -39 27 -48 27 -9 0 -30 7 -47 16 -16 9 -57 23 -90 31 -33
8 -91 33 -131 58 -40 25 -78 45 -86 45 -7 0 -57 25 -110 55 -53 30 -103 55
-112 55 -18 0 -106 81 -106 97 0 16 33 6 127 -37z m588 -10 c-3 -5 -12 -7 -20
-3 -21 7 -19 13 6 13 11 0 18 -4 14 -10z m89 -26 c24 -23 19 -26 -14 -9 -16 9
-30 18 -30 20 0 11 30 4 44 -11z m249 -15 c50 -14 47 -29 -7 -29 -48 0 -106
17 -106 31 0 12 66 11 113 -2z m-1233 -104 c59 -24 185 -84 281 -133 292 -152
445 -206 694 -248 83 -14 165 -30 183 -35 71 -23 113 -84 80 -117 -18 -18 -24
-16 -67 28 -45 45 -70 50 -142 24 -46 -17 -46 -17 -123 15 -43 18 -122 48
-177 67 -136 47 -203 78 -258 118 -57 42 -149 88 -221 111 -30 9 -73 27 -95
40 -22 12 -62 27 -89 34 -26 6 -78 32 -114 57 -47 32 -72 43 -87 39 -54 -17
-77 -1 -61 42 9 23 69 10 196 -42z m1630 -214 c0 -14 -83 -24 -127 -16 -27 5
-33 9 -22 16 19 12 149 12 149 0z m1343 -48 c-7 -2 -21 -2 -30 0 -10 3 -4 5
12 5 17 0 24 -2 18 -5z m-335 -85 c-6 -18 -28 -21 -28 -4 0 9 7 16 16 16 9 0
14 -5 12 -12z m-1877 -290 c52 -29 49 -42 -6 -35 -43 4 -85 29 -85 49 0 16 52
8 91 -14z m317 -42 c15 -7 48 -16 74 -20 45 -7 103 -40 94 -55 -6 -9 -165 5
-226 20 -75 18 -91 42 -37 58 46 13 64 13 95 -3z m1341 -40 c9 -10 6 -17 -11
-28 -27 -17 -116 -43 -124 -36 -2 3 14 22 36 42 42 37 79 46 99 22z m-1011
-63 c2 -7 -4 -16 -12 -19 -19 -7 -49 14 -40 28 8 13 46 6 52 -9z m508 -142
c-8 -13 -36 -15 -36 -3 0 4 5 13 12 20 14 14 34 0 24 -17z"/>
<path d="M1315 4968 c-9 -57 -3 -121 11 -125 7 -2 14 14 18 37 3 22 11 40 16
40 6 0 15 11 21 24 15 32 -4 66 -36 66 -20 0 -25 -6 -30 -42z"/>
<path d="M1412 4773 c2 -10 10 -18 18 -18 8 0 16 8 18 18 2 12 -3 17 -18 17
-15 0 -20 -5 -18 -17z"/>
<path d="M8104 4159 c-3 -6 -2 -15 4 -21 15 -15 46 -5 50 15 3 12 -3 17 -22
17 -14 0 -28 -5 -32 -11z"/>
<path d="M8423 4158 c-5 -7 -24 -39 -42 -71 -19 -33 -45 -64 -62 -72 -66 -35
-73 -105 -9 -105 57 0 136 115 142 209 3 45 -10 63 -29 39z"/>
<path d="M8117 4083 c-12 -11 -8 -22 13 -33 16 -9 22 -8 27 6 8 21 -24 44 -40
27z"/>
<path d="M106 10185 c-6 -17 16 -31 33 -21 13 9 2 36 -14 36 -7 0 -16 -7 -19
-15z"/>
<path d="M1849 10010 c-58 -10 -90 -27 -159 -84 -30 -25 -59 -46 -65 -46 -6 0
-26 -8 -45 -19 -19 -10 -60 -25 -90 -34 -65 -19 -145 -73 -172 -116 -25 -39
-35 -131 -19 -170 7 -16 25 -35 41 -41 35 -14 63 -2 103 46 23 28 36 34 66 34
50 0 120 38 149 80 14 22 46 45 93 67 49 24 95 58 151 113 74 71 80 80 74 106
-18 72 -34 80 -127 64z"/>
<path d="M276 9701 c-10 -11 -16 -31 -14 -48 2 -23 8 -29 35 -31 46 -4 73 13
73 46 0 16 -5 33 -12 40 -18 18 -63 14 -82 -7z"/>
<path d="M636 9609 c-84 -56 -119 -124 -85 -166 30 -36 93 -73 125 -73 42 0
104 55 104 93 0 48 -21 126 -41 152 -27 33 -46 32 -103 -6z"/>
<path d="M1103 9544 c-26 -40 -29 -124 -7 -151 27 -30 58 -37 79 -17 14 14 16
28 10 73 -13 119 -43 153 -82 95z"/>
<path d="M1008 9419 c-12 -7 -18 -22 -18 -49 0 -46 24 -77 46 -59 21 17 17
120 -5 119 -3 0 -14 -5 -23 -11z"/>
<path d="M374 9336 c-48 -50 -61 -91 -44 -140 12 -39 36 -51 79 -41 38 8 64
38 96 108 30 64 27 75 -26 103 -43 22 -59 17 -105 -30z"/>
<path d="M763 9293 c-7 -2 -13 -20 -13 -39 0 -41 22 -46 46 -9 13 20 14 28 4
40 -13 16 -17 17 -37 8z"/>
<path d="M175 9145 c-36 -35 -33 -79 6 -116 17 -16 40 -29 50 -29 23 0 97 68
100 90 4 36 -3 50 -31 65 -45 23 -97 19 -125 -10z"/>
<path d="M683 9131 c-17 -11 -34 -29 -38 -40 -8 -28 10 -59 40 -67 34 -8 116
33 135 69 14 26 14 29 -4 43 -28 20 -95 17 -133 -5z"/>
<path d="M493 8903 c-17 -6 -16 -43 1 -43 18 0 39 27 31 40 -7 11 -13 11 -32
3z"/>
<path d="M1248 8902 c-40 -5 -54 -27 -34 -54 9 -13 24 -34 33 -47 10 -14 20
-50 23 -80 5 -53 6 -56 35 -59 17 -2 33 2 40 10 5 8 32 29 58 47 27 18 51 39
54 47 3 7 -5 38 -18 68 -21 52 -25 56 -63 60 -76 10 -101 11 -128 8z"/>
<path d="M278 8726 c-13 -7 -29 -29 -38 -54 -13 -38 -13 -46 0 -70 19 -33 69
-41 106 -17 28 18 33 69 9 114 -17 34 -44 43 -77 27z"/>
<path d="M1087 8625 c-15 -14 -40 -28 -55 -31 -39 -10 -52 -23 -52 -54 0 -55
32 -60 158 -24 32 9 52 20 52 29 0 17 -8 19 -63 15 -37 -2 -39 0 -32 22 4 12
13 33 21 46 19 29 6 28 -29 -3z"/>
<path d="M518 8534 c-37 -19 -52 -48 -38 -73 13 -25 59 -61 76 -61 50 0 75
104 32 134 -27 19 -35 19 -70 0z"/>
<path d="M40 8420 c-23 -23 -24 -33 -10 -61 21 -38 90 -14 90 31 0 17 -34 50
-52 50 -5 0 -17 -9 -28 -20z"/>
<path d="M402 8318 c-7 -7 -12 -24 -12 -38 0 -33 17 -50 51 -50 27 0 59 22 59
41 0 17 -48 59 -68 59 -10 0 -23 -5 -30 -12z"/>
<path d="M860 8276 c-6 -8 -10 -25 -8 -38 4 -33 52 -38 69 -7 10 20 9 25 -11
41 -27 22 -34 22 -50 4z"/>
<path d="M741 8096 c-19 -23 -10 -61 14 -61 14 0 21 8 23 26 4 33 -20 56 -37
35z"/>
<path d="M554 7978 c-28 -54 -75 -120 -111 -160 -35 -37 -63 -71 -63 -76 1
-29 59 -56 102 -47 16 4 43 25 65 52 20 24 57 59 82 76 72 49 91 74 91 120 0
34 -7 46 -44 83 -24 24 -50 44 -58 44 -9 0 -36 -39 -64 -92z"/>
<path d="M45 7908 c-50 -29 -57 -67 -20 -103 30 -31 65 -32 92 -2 22 24 36 78
27 102 -7 18 -69 20 -99 3z"/>
<path d="M8217 7684 c-14 -14 -7 -35 11 -32 9 2 17 10 17 17 0 16 -18 25 -28
15z"/>
<path d="M8461 7601 c-19 -12 -6 -43 16 -39 10 2 18 12 18 22 0 22 -14 29 -34
17z"/>
<path d="M253 7588 c-19 -24 -22 -47 -11 -78 13 -38 36 -36 58 3 13 24 13 30
0 54 -18 31 -33 38 -47 21z"/>
<path d="M605 7487 c-15 -38 9 -66 29 -35 8 14 7 21 -6 35 -16 15 -18 15 -23
0z"/>
<path d="M7750 7241 c-17 -16 -30 -40 -30 -53 1 -32 51 -101 82 -112 47 -17
58 -4 58 71 0 82 -15 117 -53 121 -20 2 -36 -5 -57 -27z"/>
<path d="M17 7192 c-24 -26 -21 -59 7 -87 37 -37 75 -43 98 -15 24 29 23 61
-3 94 -25 32 -77 36 -102 8z"/>
<path d="M7942 7047 c-18 -18 -32 -38 -32 -43 0 -29 113 -95 183 -108 29 -5
43 -15 58 -41 23 -38 72 -65 119 -65 21 0 46 -11 70 -30 43 -34 99 -60 129
-60 11 0 31 -14 44 -31 17 -21 30 -30 41 -26 22 9 20 40 -4 62 -12 11 -20 31
-20 50 0 36 -14 51 -85 89 -28 15 -82 54 -120 87 -49 42 -80 61 -107 66 -21 3
-55 18 -74 34 -24 19 -47 28 -68 27 -17 -1 -41 4 -53 10 -33 18 -46 15 -81
-21z"/>
<path d="M145 6888 c-58 -46 -75 -159 -30 -203 30 -31 43 -31 85 -2 67 45 92
147 49 201 -25 32 -66 34 -104 4z"/>
<path d="M707 6662 c-10 -10 -17 -23 -17 -28 0 -33 -26 -89 -54 -119 -54 -57
-117 -190 -123 -261 -4 -43 -2 -64 7 -69 17 -11 31 14 28 50 -3 30 -3 30 52
30 l54 0 7 38 c3 20 22 61 42 90 21 30 37 64 37 78 0 13 9 41 20 62 24 44 26
94 4 125 -18 27 -36 28 -57 4z"/>
<path d="M7690 6659 c-14 -25 -6 -66 31 -147 40 -89 60 -113 157 -194 48 -40
119 -102 159 -139 53 -50 82 -70 110 -75 52 -9 66 -18 132 -78 64 -59 109 -81
146 -72 22 6 25 12 25 49 0 51 -36 129 -81 175 l-31 32 -33 -20 c-18 -11 -39
-20 -47 -20 -21 0 -43 28 -57 71 -18 57 -109 139 -153 139 -24 0 -243 195
-306 273 -26 32 -38 34 -52 6z"/>
<path d="M386 6631 c-26 -28 -32 -84 -11 -105 31 -31 105 14 105 64 0 52 -60
78 -94 41z"/>
<path d="M940 6415 c0 -17 5 -25 13 -22 6 2 12 12 12 22 0 10 -6 20 -12 23 -8
2 -13 -6 -13 -23z"/>
<path d="M233 6408 c-6 -7 -23 -42 -38 -77 -31 -68 -29 -79 17 -114 23 -17 27
-18 62 -3 57 24 96 55 96 77 0 29 -36 95 -62 113 -27 19 -62 21 -75 4z"/>
<path d="M823 6375 c-13 -9 -27 -35 -33 -58 -6 -23 -17 -57 -25 -75 -22 -49
-19 -68 19 -91 47 -30 63 -26 85 18 11 21 37 52 57 68 l38 30 -27 46 c-27 45
-61 77 -82 77 -6 0 -20 -7 -32 -15z"/>
<path d="M429 6091 c-46 -49 -61 -106 -46 -179 9 -43 8 -54 -5 -69 -8 -10 -18
-33 -21 -50 -4 -18 -25 -75 -47 -127 -44 -104 -49 -149 -22 -184 29 -37 62
-26 90 29 19 38 24 66 25 140 l2 93 58 14 c32 8 61 22 66 31 6 9 4 49 -4 99
-15 94 -14 104 21 127 32 21 30 46 -5 84 -39 42 -66 39 -112 -8z"/>
<path d="M174 6087 c-10 -28 1 -90 18 -101 27 -17 51 14 52 66 1 41 0 43 -32
46 -21 2 -34 -2 -38 -11z"/>
<path d="M732 6068 c-18 -18 -14 -88 8 -137 19 -41 22 -43 52 -37 60 12 71 40
42 102 -18 38 -61 84 -78 84 -7 0 -17 -5 -24 -12z"/>
<path d="M8480 5937 c-16 -8 -25 -21 -25 -37 0 -26 26 -44 79 -55 28 -6 28 -8
22 -51 -11 -83 -16 -87 -107 -79 -57 5 -84 4 -94 -5 -22 -18 -18 -47 8 -65 21
-14 41 -14 193 0 195 17 217 26 222 91 2 34 -3 44 -40 83 -48 50 -126 102
-177 119 -42 15 -50 15 -81 -1z"/>
<path d="M705 5755 c-5 -2 -22 -6 -38 -9 -35 -8 -67 -40 -67 -66 0 -29 47 -70
80 -70 51 0 138 78 125 112 -9 24 -69 43 -100 33z"/>
<path d="M7274 5655 c-8 -20 2 -45 19 -45 7 0 22 6 32 14 16 12 17 16 6 30
-17 20 -50 21 -57 1z"/>
<path d="M8392 5561 c-12 -7 -11 -14 3 -41 47 -90 142 -112 98 -22 -25 51 -73
81 -101 63z"/>
<path d="M7399 5493 c-12 -31 -5 -133 11 -163 7 -14 21 -20 44 -20 53 0 65
-23 79 -146 l12 -109 33 -3 c51 -5 62 11 62 90 0 68 -1 70 -44 116 -36 38 -45
57 -52 101 -8 46 -14 57 -39 71 -16 9 -39 33 -50 53 -24 44 -42 47 -56 10z"/>
<path d="M540 5475 c-21 -22 -23 -33 -21 -119 l1 -95 -45 -51 -45 -51 0 -141
c0 -123 -2 -145 -20 -173 -29 -47 -37 -117 -15 -138 24 -24 99 -23 125 3 20
20 26 37 34 108 2 24 16 60 30 80 20 30 25 48 24 97 0 41 8 85 25 135 22 65
47 178 47 217 0 7 -13 25 -30 40 -18 15 -30 36 -30 50 0 62 -40 81 -80 38z"/>
<path d="M8536 5413 c-21 -22 16 -93 48 -93 22 0 28 31 11 56 -17 26 -49 46
-59 37z"/>
<path d="M8660 5180 c0 -26 8 -35 48 -60 80 -50 91 -60 100 -93 6 -25 14 -33
37 -35 23 -3 36 4 67 38 27 29 45 40 61 38 35 -4 47 10 47 53 0 98 -54 106
-142 21 l-38 -36 -32 31 c-32 31 -110 72 -135 73 -8 0 -13 -13 -13 -30z"/>
<path d="M8884 4670 c-32 -13 -54 -50 -54 -91 0 -57 20 -67 86 -44 79 27 104
72 68 123 -16 23 -59 29 -100 12z"/>
<path d="M2922 4368 c-19 -19 -14 -46 9 -59 17 -9 23 -8 30 2 11 18 11 26 -1
50 -12 22 -21 24 -38 7z"/>
<path d="M8938 4279 c-28 -16 -22 -39 10 -39 36 0 56 14 49 34 -7 18 -33 20
-59 5z"/>
<path d="M8792 4057 c-10 -11 -9 -17 3 -27 24 -20 45 4 24 26 -14 13 -17 13
-27 1z"/>
<path d="M1827 3824 c-13 -14 -7 -62 12 -85 16 -20 21 -21 35 -10 9 7 16 20
16 27 0 19 -54 77 -63 68z"/>
<path d="M8780 3786 c-13 -17 -7 -46 9 -46 15 0 42 31 38 44 -6 17 -33 18 -47
2z"/>
<path d="M8028 3660 c-27 -21 -41 -63 -26 -78 10 -10 85 4 106 21 18 14 15 34
-8 57 -25 25 -41 25 -72 0z"/>
<path d="M8966 3654 c-10 -26 -7 -69 6 -82 7 -7 28 -12 48 -12 63 0 80 42 34
85 -31 28 -79 33 -88 9z"/>
<path d="M8278 3638 c-16 -6 -28 -16 -28 -25 0 -19 54 -73 74 -73 25 0 42 45
28 74 -12 28 -37 36 -74 24z"/>
<path d="M8662 3580 c-75 -53 -84 -68 -80 -135 l3 -40 -55 3 c-61 3 -106 -17
-135 -61 -15 -23 -14 -28 7 -72 l23 -47 -28 -20 c-32 -24 -34 -39 -6 -64 44
-39 131 -14 221 65 46 41 60 69 73 143 4 25 25 62 60 105 57 71 65 99 43 148
-17 37 -45 32 -126 -25z"/>
<path d="M1430 3546 c0 -17 5 -26 16 -26 10 0 14 7 12 22 -5 32 -28 35 -28 4z"/>
<path d="M7917 3532 c-9 -10 -20 -34 -23 -53 -9 -46 -28 -75 -61 -91 -40 -19
-36 -43 7 -43 27 0 37 5 45 23 6 14 24 26 47 33 67 18 97 88 57 136 -16 19
-53 16 -72 -5z"/>
<path d="M2426 3505 c-29 -27 -33 -53 -12 -93 23 -44 50 -63 97 -65 47 -2 57
11 45 57 -6 26 -72 112 -91 120 -7 2 -25 -6 -39 -19z"/>
<path d="M2146 3504 c-16 -43 29 -99 60 -73 18 15 18 39 -2 67 -18 26 -49 29
-58 6z"/>
<path d="M912 3483 c-5 -10 -12 -30 -16 -45 -3 -14 -17 -40 -31 -56 -33 -39
-44 -112 -20 -135 22 -22 47 -21 76 2 20 16 23 29 27 109 5 94 -1 142 -18 142
-5 0 -13 -8 -18 -17z"/>
<path d="M8239 3438 c-6 -13 -13 -24 -14 -26 -2 -2 -17 4 -34 13 -25 12 -36
13 -54 4 -29 -15 -37 -28 -37 -59 0 -56 49 -66 113 -21 23 15 55 36 70 45 37
23 34 60 -5 64 -20 2 -30 -3 -39 -20z"/>
<path d="M1380 3384 c-16 -19 -25 -163 -11 -183 10 -15 9 -15 73 17 3 2 8 -7
10 -19 2 -12 8 -24 14 -26 17 -6 27 83 15 142 -13 72 -68 109 -101 69z"/>
<path d="M2033 3323 c-27 -40 -23 -116 7 -148 48 -51 130 -18 130 54 0 94 -95
159 -137 94z"/>
<path d="M8845 3290 c-19 -3 -38 -17 -52 -39 -13 -19 -33 -39 -46 -45 -27 -14
-29 -45 -4 -60 16 -9 22 -7 34 12 18 26 64 29 103 7 36 -21 64 -18 88 8 28 30
28 49 0 82 -25 29 -77 44 -123 35z"/>
<path d="M7441 3241 c-24 -24 -26 -42 -9 -59 21 -21 48 -14 59 16 19 48 -16
77 -50 43z"/>
<path d="M7703 3244 c-9 -24 10 -49 41 -52 34 -4 45 22 21 48 -22 24 -53 26
-62 4z"/>
<path d="M2607 3197 c-8 -21 28 -74 61 -91 50 -26 59 15 15 63 -33 35 -68 48
-76 28z"/>
<path d="M1837 3193 c-15 -14 -6 -71 18 -105 26 -39 94 -72 136 -66 34 4 39
72 9 111 -38 48 -139 85 -163 60z"/>
<path d="M8222 3150 c-13 -5 -29 -25 -37 -43 -8 -19 -20 -39 -28 -46 -26 -21
-40 -67 -27 -90 16 -31 47 -26 91 14 22 19 47 35 58 35 56 0 92 78 52 114 -23
21 -78 29 -109 16z"/>
<path d="M7634 3129 c-8 -14 11 -33 25 -25 6 4 11 14 11 22 0 16 -26 19 -36 3z"/>
<path d="M7513 3112 c-58 -17 -74 -56 -52 -121 20 -57 74 -28 121 63 19 38 20
40 2 53 -19 14 -36 15 -71 5z"/>
<path d="M8603 3101 c-76 -35 -44 -80 70 -96 55 -9 77 4 77 45 0 59 -75 84
-147 51z"/>
<path d="M7320 3008 c-66 -45 -86 -119 -45 -175 13 -17 17 -14 64 34 67 69 83
102 68 134 -17 32 -46 35 -87 7z"/>
<path d="M3692 2998 c-7 -7 -12 -16 -12 -20 0 -12 28 -10 36 3 10 17 -10 31
-24 17z"/>
<path d="M2452 2968 c-21 -21 -15 -75 10 -92 45 -32 98 -15 98 31 0 50 -76 93
-108 61z"/>
<path d="M8405 2945 c-16 -8 -42 -12 -57 -9 -23 5 -31 0 -52 -34 -14 -22 -30
-43 -36 -47 -17 -11 -11 -44 10 -55 11 -6 20 -21 20 -35 0 -13 7 -31 16 -39
18 -18 29 -14 88 33 21 17 56 36 77 41 72 20 142 135 93 154 -28 11 -128 5
-159 -9z"/>
<path d="M1374 2925 c-11 -27 1 -39 19 -21 9 10 17 22 17 27 0 15 -30 10 -36
-6z"/>
<path d="M2110 2917 c0 -26 54 -117 70 -117 13 0 13 69 -1 109 -9 25 -16 31
-40 31 -24 0 -29 -4 -29 -23z"/>
<path d="M7579 2903 c-19 -14 -45 -40 -59 -56 l-24 -30 48 6 c58 8 73 19 81
59 10 45 -6 52 -46 21z"/>
<path d="M7990 2910 c-43 -10 -66 -38 -85 -102 -16 -56 -8 -88 24 -88 20 0 51
30 51 49 0 6 -7 26 -16 43 -21 40 -9 48 72 48 44 0 65 5 75 16 11 14 10 18 -6
30 -21 15 -61 17 -115 4z"/>
<path d="M3836 2895 c-19 -19 -14 -44 14 -85 18 -25 34 -35 92 -58 20 -8 29
-21 33 -46 9 -47 36 -68 93 -74 62 -5 74 9 70 79 -3 50 -5 54 -33 59 -47 10
-153 70 -179 101 -31 36 -68 46 -90 24z"/>
<path d="M3475 2883 c-23 -22 -13 -69 22 -105 33 -34 54 -35 89 -5 32 28 28
52 -17 97 -34 33 -69 38 -94 13z"/>
<path d="M1372 2853 c-20 -8 -42 -59 -42 -96 0 -34 22 -63 68 -86 28 -15 28
-26 -3 -67 -33 -44 -32 -76 6 -113 37 -37 44 -38 64 -7 12 18 18 60 22 153 7
145 -3 180 -57 208 -30 16 -37 17 -58 8z"/>
<path d="M1906 2814 c-3 -8 -2 -23 4 -33 15 -28 130 -131 146 -131 45 0 15 69
-61 139 -47 43 -79 52 -89 25z"/>
<path d="M8695 2821 c-40 -17 -57 -48 -57 -101 0 -29 4 -56 8 -60 13 -13 98 8
136 34 42 27 48 70 18 109 -22 28 -63 35 -105 18z"/>
<path d="M1658 2737 c3 -59 0 -83 -17 -121 -28 -59 -21 -106 21 -141 35 -29
46 -31 77 -9 35 25 51 75 51 160 0 66 3 80 25 105 43 52 10 79 -98 79 l-62 0
3 -73z"/>
<path d="M3632 2718 c-16 -21 4 -57 73 -124 93 -91 105 -87 105 41 0 81 -11
99 -57 93 -20 -2 -29 -9 -31 -25 -4 -30 -16 -29 -36 2 -18 27 -38 32 -54 13z"/>
<path d="M6980 2715 c-7 -9 -10 -18 -7 -21 10 -11 37 5 37 21 0 19 -14 19 -30
0z"/>
<path d="M8184 2712 c-24 -19 -84 -100 -84 -114 0 -26 132 12 155 45 21 30 19
64 -4 77 -27 14 -43 12 -67 -8z"/>
<path d="M2197 2593 c-4 -3 -7 -16 -7 -27 0 -11 -12 -30 -27 -42 -17 -14 -24
-26 -20 -37 10 -28 37 -19 51 16 28 68 30 117 3 90z"/>
<path d="M2715 2590 c-4 -6 7 -32 24 -59 17 -26 31 -52 31 -57 0 -5 14 -26 30
-46 24 -29 40 -38 74 -43 88 -14 108 17 60 86 -30 44 -114 105 -164 119 -43
12 -47 12 -55 0z"/>
<path d="M1928 2549 c-26 -15 -23 -69 7 -110 50 -68 87 -78 104 -27 30 86 -43
177 -111 137z"/>
<path d="M3892 2548 c-18 -18 -15 -66 6 -76 9 -6 36 -13 60 -17 26 -4 60 -20
85 -41 88 -70 137 -80 137 -28 0 50 -16 64 -75 64 -45 0 -58 4 -73 22 -64 82
-110 106 -140 76z"/>
<path d="M7895 2535 c-41 -40 -29 -95 21 -95 44 0 71 72 38 104 -21 22 -31 20
-59 -9z"/>
<path d="M2548 2489 c-38 -22 -10 -99 35 -99 9 0 24 11 32 24 19 28 9 58 -25
76 -22 12 -21 12 -42 -1z"/>
<path d="M1561 2384 c-27 -34 -26 -61 4 -197 48 -214 82 -283 136 -275 37 5
51 43 45 123 -3 39 -11 84 -17 102 -11 26 -11 42 0 83 17 68 10 89 -48 143
-58 55 -89 60 -120 21z"/>
<path d="M3657 2403 c-4 -3 -7 -18 -7 -33 0 -15 3 -30 7 -33 10 -10 33 13 33
33 0 20 -23 43 -33 33z"/>
<path d="M3757 2372 c-32 -36 -13 -88 43 -117 50 -26 60 -21 60 34 0 79 -62
128 -103 83z"/>
<path d="M2275 2360 c-10 -16 3 -77 26 -122 13 -26 35 -47 70 -66 82 -44 129
-81 151 -117 12 -21 36 -42 61 -53 23 -11 64 -38 92 -60 63 -53 105 -73 158
-75 l42 -2 -1 54 c0 51 -3 57 -42 91 -49 44 -159 103 -222 120 -25 7 -50 16
-57 22 -6 5 -24 45 -38 87 -36 108 -56 125 -155 129 -52 3 -80 0 -85 -8z"/>
<path d="M2061 2321 c-12 -16 -21 -38 -21 -49 0 -30 74 -92 110 -92 27 0 30 3
30 31 0 33 -49 112 -80 129 -15 8 -22 5 -39 -19z"/>
<path d="M1807 2282 c-27 -30 -22 -99 13 -159 17 -29 34 -53 38 -53 24 0 96
-80 132 -145 42 -76 61 -95 174 -180 139 -103 177 -115 221 -70 30 29 31 56 6
110 -25 54 -57 82 -127 110 -33 13 -70 35 -84 48 -14 14 -57 41 -96 60 -38 19
-75 41 -81 49 -6 7 -14 42 -18 78 -9 82 -24 110 -74 143 -47 32 -81 34 -104 9z"/>
<path d="M7221 2284 c-36 -7 -68 -19 -72 -26 -8 -13 6 -48 25 -61 14 -9 134 2
161 15 27 14 55 49 55 71 0 14 -9 17 -52 16 -29 0 -82 -7 -117 -15z"/>
<path d="M3448 2269 c-28 -16 -23 -67 7 -81 37 -17 75 3 75 40 0 47 -39 67
-82 41z"/>
<path d="M7695 2258 c-21 -18 -26 -30 -21 -46 13 -38 45 -38 84 2 39 38 37 50
-9 61 -19 5 -33 0 -54 -17z"/>
<path d="M3960 2227 c0 -54 50 -121 104 -142 65 -25 96 -11 96 43 0 44 -31 92
-58 92 -9 0 -32 9 -50 20 -18 11 -46 20 -62 20 -27 0 -30 -3 -30 -33z"/>
<path d="M4496 2245 c-20 -20 -11 -40 29 -65 43 -27 77 -25 104 4 27 29 21 43
-25 62 -44 18 -89 18 -108 -1z"/>
<path d="M4748 2199 c-21 -11 -38 -24 -38 -30 0 -31 103 -95 134 -83 23 9 20
56 -7 95 -28 41 -41 44 -89 18z"/>
<path d="M7014 2205 c-4 -9 -2 -21 4 -27 16 -16 47 -5 47 17 0 26 -42 34 -51
10z"/>
<path d="M4900 2180 c-23 -43 21 -70 114 -70 25 0 27 2 15 17 -15 18 -98 73
-111 73 -4 0 -12 -9 -18 -20z"/>
<path d="M8700 2192 c-30 -10 -41 -24 -29 -38 16 -20 47 -17 59 5 5 11 10 22
10 24 0 9 -25 14 -40 9z"/>
<path d="M8177 2169 c-52 -12 -94 -35 -107 -58 -5 -11 -10 -40 -10 -64 0 -92
41 -143 93 -115 28 15 91 87 113 129 40 79 -1 128 -89 108z"/>
<path d="M4294 2126 c-75 -74 -56 -113 67 -131 l46 -7 6 39 c4 21 7 48 7 61 0
25 -50 82 -71 82 -6 0 -31 -20 -55 -44z"/>
<path d="M5650 2156 c-30 -7 -74 -23 -96 -36 l-42 -24 -51 27 c-71 39 -131 44
-206 18 -32 -12 -75 -21 -95 -21 -39 0 -60 -14 -60 -41 0 -29 27 -41 132 -56
84 -12 111 -13 153 -3 44 11 56 10 83 -4 37 -19 40 -31 12 -48 -26 -17 -25
-31 6 -88 31 -56 68 -77 111 -63 35 12 40 49 19 148 -12 59 -12 74 -1 102 18
42 38 42 79 -2 65 -68 126 -31 95 58 -13 38 -17 42 -49 44 -19 1 -60 -4 -90
-11z"/>
<path d="M7715 2069 c-40 -36 -65 -100 -46 -123 30 -36 110 -21 149 29 24 31
30 93 10 113 -23 23 -75 14 -113 -19z"/>
<path d="M3011 2034 c-32 -41 -25 -68 21 -79 19 -5 32 -1 47 14 26 26 27 45 1
71 -27 27 -44 25 -69 -6z"/>
<path d="M3804 2046 c-7 -19 3 -36 22 -36 10 0 14 8 12 22 -4 26 -26 36 -34
14z"/>
<path d="M4535 2040 c-7 -11 -1 -21 48 -78 l28 -33 -31 -29 c-50 -46 -32 -100
34 -100 41 0 56 28 56 109 0 74 -15 115 -46 130 -31 14 -81 14 -89 1z"/>
<path d="M8383 2016 c-36 -16 -48 -43 -34 -79 28 -74 123 -75 172 -1 37 56 20
82 -57 90 -31 3 -61 -1 -81 -10z"/>
<path d="M3500 1965 c-30 -36 15 -71 55 -41 19 14 19 15 1 35 -22 25 -39 27
-56 6z"/>
<path d="M6107 1964 c-37 -20 -34 -58 4 -62 27 -3 79 31 79 53 0 27 -42 31
-83 9z"/>
<path d="M7855 1933 c-38 -10 -45 -24 -45 -92 0 -83 8 -111 29 -111 25 0 60
41 67 78 4 18 23 48 43 68 35 34 35 36 17 50 -19 14 -70 17 -111 7z"/>
<path d="M6785 1900 c-12 -19 -8 -72 6 -81 15 -10 58 -3 72 11 11 10 0 45 -19
65 -18 17 -50 20 -59 5z"/>
<path d="M7167 1832 c-70 -95 -72 -124 -10 -142 80 -24 171 28 146 83 -14 30
-61 85 -83 97 -15 8 -24 2 -53 -38z"/>
<path d="M2530 1855 c-32 -39 32 -114 104 -122 75 -9 135 5 148 33 16 34 -4
72 -47 90 -47 19 -188 19 -205 -1z"/>
<path d="M3712 1858 c-32 -32 5 -92 49 -81 29 8 44 45 30 72 -13 23 -59 29
-79 9z"/>
<path d="M8639 1861 c-53 -17 -70 -31 -63 -54 12 -39 35 -57 74 -57 73 0 118
69 68 104 -24 17 -39 18 -79 7z"/>
<path d="M8361 1744 c-27 -35 -27 -88 0 -115 38 -38 135 -10 161 46 9 21 8 29
-8 46 -23 26 -74 49 -108 49 -15 0 -33 -11 -45 -26z"/>
<path d="M2889 1732 l-31 -27 41 -33 c23 -18 41 -40 41 -49 0 -14 -10 -15 -72
-10 -81 7 -143 -3 -166 -27 -14 -14 -14 -17 2 -35 10 -11 58 -46 107 -78 55
-36 89 -65 89 -75 0 -26 -26 -22 -94 12 -33 17 -75 30 -95 30 -46 0 -83 -25
-79 -53 5 -37 57 -57 175 -67 132 -11 226 -39 271 -80 19 -17 56 -42 84 -56
27 -14 48 -27 46 -28 -1 -2 -34 0 -73 5 -77 10 -118 5 -136 -17 -17 -21 -93
-17 -140 6 -22 12 -57 36 -77 54 -43 39 -93 66 -120 66 -26 0 -72 -37 -72 -59
0 -24 57 -53 170 -85 98 -28 107 -32 183 -79 64 -39 140 -64 299 -97 144 -30
158 -34 158 -52 0 -18 -190 -2 -325 27 -66 14 -190 39 -275 55 -122 23 -171
38 -230 67 -73 37 -78 38 -175 37 -105 -2 -171 -18 -188 -45 -15 -25 17 -102
63 -150 34 -36 41 -39 92 -39 31 0 84 9 119 19 64 20 168 41 199 41 8 0 39
-18 68 -39 52 -40 53 -40 145 -39 158 0 406 -50 438 -89 26 -31 150 -83 199
-83 83 0 200 44 200 74 0 8 -18 37 -40 65 l-40 51 169 0 c143 0 172 3 186 16
14 14 14 19 2 38 -25 37 -95 67 -212 91 -144 29 -149 31 -212 61 -34 17 -88
30 -158 40 -58 7 -115 19 -127 25 l-22 12 24 9 c38 14 215 -10 310 -42 108
-36 156 -44 230 -35 70 8 106 31 96 62 -10 32 -88 68 -333 152 -125 43 -254
88 -285 100 -33 12 -81 21 -111 21 -49 0 -59 4 -100 41 -51 44 -92 97 -84 106
3 3 38 -4 77 -16 275 -84 460 -105 460 -52 0 27 -37 70 -89 102 -37 24 -56 29
-110 29 -48 0 -82 7 -126 26 -33 14 -94 38 -135 53 -41 15 -94 37 -117 49 -53
28 -56 28 -94 -6z"/>
<path d="M4697 1742 c-25 -27 -22 -52 7 -52 28 0 49 22 44 47 -5 25 -31 27
-51 5z"/>
<path d="M1834 1716 c-33 -15 -74 -60 -74 -82 0 -19 78 -74 106 -74 42 0 114
79 114 125 0 18 -57 45 -92 45 -13 -1 -37 -7 -54 -14z"/>
<path d="M8152 1685 c-19 -8 -51 -29 -73 -46 -47 -37 -51 -68 -11 -99 24 -20
35 -22 101 -16 93 8 121 24 121 72 0 46 -14 70 -50 89 -35 18 -46 18 -88 0z"/>
<path d="M7620 1661 c-27 -52 -1 -101 54 -101 60 0 74 45 29 92 -31 33 -68 36
-83 9z"/>
<path d="M2074 1645 c-10 -25 23 -65 54 -65 27 0 52 15 52 32 0 12 -62 48 -83
48 -10 0 -20 -7 -23 -15z"/>
<path d="M5514 1649 c-3 -6 -1 -16 5 -22 13 -13 62 1 69 21 5 15 -64 17 -74 1z"/>
<path d="M4412 1613 c-22 -9 -34 -41 -23 -62 11 -20 67 -44 82 -35 16 10 9 64
-11 84 -21 21 -26 22 -48 13z"/>
<path d="M6336 1599 c-17 -14 -26 -29 -24 -43 2 -17 11 -22 46 -24 49 -4 72
10 72 42 0 48 -49 61 -94 25z"/>
<path d="M4274 1589 c-9 -16 12 -33 31 -25 14 5 15 9 5 21 -15 18 -26 19 -36
4z"/>
<path d="M4740 1579 c-42 -19 -47 -19 -87 -4 -54 21 -77 13 -110 -36 -21 -32
-23 -42 -13 -54 7 -8 25 -15 40 -15 32 0 49 -17 84 -87 14 -29 30 -53 35 -53
5 0 12 14 16 30 4 17 22 47 41 66 31 34 37 36 74 30 32 -5 42 -3 47 10 8 20
-20 74 -56 108 l-26 25 -45 -20z"/>
<path d="M5720 1578 c-13 -14 -20 -35 -20 -60 0 -32 4 -40 26 -48 45 -17 104
6 104 41 0 19 -61 89 -78 89 -6 0 -20 -10 -32 -22z"/>
<path d="M7875 1565 c-14 -13 -25 -33 -25 -45 0 -26 43 -70 69 -70 21 0 75 57
86 91 16 51 -85 70 -130 24z"/>
<path d="M7295 1545 c-24 -24 -33 -68 -17 -91 13 -18 56 -44 74 -44 22 0 86
59 89 80 4 36 -3 50 -31 65 -43 22 -87 19 -115 -10z"/>
<path d="M5066 1525 c-8 -32 16 -90 45 -105 13 -8 40 -10 68 -6 34 4 52 2 66
-9 29 -21 61 -18 85 7 47 51 17 75 -145 113 -58 14 -107 25 -109 25 -2 0 -7
-11 -10 -25z"/>
<path d="M8369 1507 c-85 -57 -12 -154 86 -113 51 22 82 95 53 124 -21 21
-101 15 -139 -11z"/>
<path d="M5450 1502 c0 -22 91 -82 124 -82 42 0 27 56 -20 76 -36 15 -104 19
-104 6z"/>
<path d="M1933 1413 c-25 -64 13 -139 89 -177 62 -31 92 -32 136 -6 39 24 50
25 72 5 51 -46 181 -10 214 58 20 44 9 88 -27 105 -28 13 -252 31 -400 32 -63
0 -79 -3 -84 -17z"/>
<path d="M8118 1410 c-14 -10 -56 -31 -94 -44 -73 -27 -94 -45 -94 -83 0 -40
53 -65 130 -60 77 5 129 29 183 85 l38 39 -48 35 c-65 48 -84 53 -115 28z"/>
<path d="M5735 1350 c-11 -18 15 -51 38 -48 25 3 35 37 15 49 -18 12 -45 11
-53 -1z"/>
<path d="M7145 1308 c-33 -18 -45 -40 -45 -84 0 -99 117 -107 166 -13 20 41
11 75 -26 94 -34 18 -67 19 -95 3z"/>
<path d="M4923 1290 c-29 -12 -30 -43 -3 -70 24 -24 29 -24 58 -4 24 17 29 53
10 72 -14 14 -34 14 -65 2z"/>
<path d="M6756 1105 c-21 -21 -30 -78 -17 -104 28 -51 141 -8 141 54 0 54 -85
88 -124 50z"/>
<path d="M6416 1011 c-25 -28 -14 -51 24 -51 29 0 31 2 28 32 -4 39 -27 47
-52 19z"/>
<path d="M6190 975 c-15 -19 -4 -52 21 -60 38 -12 65 35 37 63 -16 16 -43 15
-58 -3z"/>
<path d="M4110 930 c-23 -23 -24 -33 -10 -61 12 -21 50 -25 68 -7 26 26 8 88
-25 88 -7 0 -22 -9 -33 -20z"/>
<path d="M5605 869 c-4 -6 -4 -13 -1 -16 8 -8 36 5 36 17 0 13 -27 13 -35 -1z"/>
<path d="M5062 768 c-25 -25 -6 -68 30 -68 22 0 35 45 18 65 -15 18 -32 19
-48 3z"/>
<path d="M2489 720 c-20 -4 -51 -15 -70 -26 -29 -17 -34 -26 -37 -61 -4 -56
22 -83 79 -83 47 0 69 10 123 57 46 39 84 42 139 13 31 -17 57 -20 169 -21 73
0 151 -3 172 -7 35 -6 40 -11 52 -51 22 -77 78 -114 135 -91 34 15 55 60 40
88 -16 30 -105 101 -143 114 -18 6 -47 22 -65 35 -31 24 -35 24 -255 24 -122
0 -241 3 -263 7 -22 4 -56 5 -76 2z"/>
<path d="M4020 681 c0 -12 6 -21 15 -21 8 0 15 4 15 9 0 5 -7 14 -15 21 -13
10 -15 9 -15 -9z"/>
<path d="M5221 654 c-37 -15 -56 -52 -47 -89 12 -49 87 -56 141 -14 31 25 32
59 3 86 -31 28 -59 33 -97 17z"/>
<path d="M3715 643 c-11 -2 -45 -14 -75 -27 -30 -13 -68 -28 -85 -33 -40 -12
-45 -40 -8 -48 40 -9 82 -30 130 -66 40 -31 43 -31 89 -20 88 22 114 37 114
66 0 72 -92 143 -165 128z"/>
<path d="M4830 622 c-22 -18 -23 -22 -11 -51 19 -45 124 -151 150 -151 49 0
83 127 44 162 -28 25 -75 45 -119 52 -32 6 -45 3 -64 -12z"/>
<path d="M5945 581 c-10 -17 4 -31 31 -31 19 0 25 5 22 18 -4 19 -43 29 -53
13z"/>
<path d="M4195 570 c-58 -22 -74 -92 -23 -98 31 -4 78 38 78 69 0 23 -29 39
-55 29z"/>
<path d="M3986 551 c-12 -20 6 -42 33 -39 37 4 37 42 -1 46 -14 2 -29 -1 -32
-7z"/>
<path d="M4544 489 c-9 -15 12 -33 30 -26 9 4 16 13 16 22 0 17 -35 21 -46 4z"/>
<path d="M5468 434 c-50 -26 -47 -108 4 -116 45 -7 102 10 125 37 28 32 28 36
2 69 -16 21 -29 26 -62 26 -23 -1 -54 -7 -69 -16z"/>
<path d="M2951 352 c-19 -10 -43 -34 -53 -53 -61 -113 42 -151 208 -76 43 20
93 35 109 35 36 -1 71 9 103 30 35 22 13 31 -115 43 -94 8 -139 16 -203 35 -9
2 -31 -4 -49 -14z"/>
<path d="M4971 356 c-9 -11 -10 -20 -2 -35 14 -25 90 -71 118 -71 27 0 73 54
73 86 0 27 -9 29 -57 12 -27 -10 -38 -9 -68 5 -43 21 -49 21 -64 3z"/>
<path d="M6205 354 c-11 -8 -29 -14 -40 -12 -30 4 -45 -10 -45 -42 0 -40 29
-54 99 -47 58 6 81 23 81 60 0 53 -51 75 -95 41z"/>
<path d="M4230 354 c-8 -3 -34 -12 -57 -20 -54 -20 -57 -44 -7 -44 42 0 101
-25 113 -49 5 -9 12 -37 16 -64 9 -61 38 -99 74 -95 37 4 37 30 2 79 -38 51
-41 103 -10 143 16 20 19 30 10 39 -12 12 -116 20 -141 11z"/>
<path d="M4492 313 c2 -10 14 -19 26 -21 19 -3 23 1 20 15 -2 10 -14 19 -26
21 -19 3 -23 -1 -20 -15z"/>
<path d="M3763 313 c-22 -8 -14 -33 13 -43 40 -16 114 -13 120 5 11 28 -15 45
-70 44 -28 0 -57 -3 -63 -6z"/>
<path d="M4687 193 c-15 -14 -6 -53 14 -64 44 -23 91 25 57 59 -13 13 -60 16
-71 5z"/>
<path d="M4575 150 c-11 -18 13 -36 31 -25 9 6 16 15 17 20 3 14 -40 18 -48 5z"/>
<path d="M4194 120 c-27 -11 -54 -48 -48 -65 8 -20 54 -28 85 -15 39 17 48 49
19 72 -25 20 -26 20 -56 8z"/>
<path d="M3608 73 c-25 -6 -22 -40 5 -55 29 -17 295 -17 353 0 51 15 75 39 53
53 -14 9 -378 11 -411 2z"/>
</g>
</svg>
