<?xml version="1.0" standalone="no"?>
<!DOCTYPE svg PUBLIC "-//W3C//DTD SVG 20010904//EN"
 "http://www.w3.org/TR/2001/REC-SVG-20010904/DTD/svg10.dtd">
<svg version="1.0" xmlns="http://www.w3.org/2000/svg"
 width="640.000000pt" height="1280.000000pt" viewBox="0 0 640.000000 1280.000000"
 preserveAspectRatio="xMidYMid meet">
<g transform="translate(0.000000,1280.000000) scale(0.100000,-0.100000)"
fill="#000000" stroke="none">
<path d="M3305 12794 c-559 -20 -815 -67 -1090 -199 -165 -79 -285 -163 -406
-284 -115 -115 -172 -203 -210 -321 -22 -70 -25 -118 -69 -1060 -11 -239 -25
-536 -30 -660 -40 -828 -47 -985 -45 -988 3 -3 233 25 273 34 l24 5 -6 -93
c-4 -51 -16 -259 -27 -463 -11 -203 -33 -604 -50 -890 -28 -504 -57 -1037 -79
-1470 -107 -2178 -33 -3683 230 -4650 118 -433 247 -724 464 -1050 99 -148
140 -200 236 -295 194 -194 418 -320 695 -391 87 -23 150 -21 275 7 36 8 83
19 105 24 292 65 539 285 701 624 52 110 103 255 124 351 6 28 26 97 45 155
255 785 371 2063 351 3850 -9 770 -29 1456 -86 2910 -11 272 -22 588 -26 702
l-7 207 36 -6 c20 -3 56 -2 81 1 55 9 49 -23 71 391 9 165 22 408 30 540 63
1075 28 1726 -125 2312 -56 214 -124 347 -233 453 -133 128 -288 197 -532 236
-98 15 -506 26 -720 18z m-11 -683 c92 -24 214 -75 293 -123 60 -36 158 -119
173 -149 7 -12 -13 -182 -65 -556 -42 -296 -89 -634 -105 -751 -52 -374 -35
-562 70 -773 66 -133 152 -237 307 -371 54 -46 159 -136 233 -200 74 -64 165
-147 201 -185 l66 -68 7 -225 c3 -124 15 -450 26 -725 27 -696 57 -1528 72
-1995 16 -537 17 -2047 0 -2395 -30 -645 -78 -1172 -142 -1560 -31 -187 -27
-180 -60 -98 -167 430 -569 672 -1080 650 -209 -9 -341 -40 -507 -117 -306
-143 -535 -428 -623 -775 -16 -66 -30 -129 -30 -140 -1 -36 -16 3 -59 151
-195 677 -283 1464 -298 2664 -9 801 21 1714 108 3200 28 483 87 1547 95 1717
l7 143 45 37 c24 20 100 73 167 118 277 185 636 342 1097 480 82 24 87 28 101
63 46 116 49 344 6 428 -21 42 -36 53 -134 108 -206 116 -319 200 -451 339
-180 188 -299 404 -388 702 l-34 115 36 29 c106 83 302 198 414 242 135 53
298 60 452 20z m321 -9780 c203 -54 356 -162 466 -329 104 -159 152 -341 152
-587 1 -187 -10 -252 -64 -389 -137 -345 -337 -602 -554 -712 -90 -45 -98 -48
-172 -47 -124 2 -328 55 -458 120 -222 112 -452 327 -531 499 -80 173 -109
325 -101 532 6 164 30 266 93 401 135 289 374 470 694 527 113 20 372 12 475
-15z"/>
</g>
</svg>
