<?xml version="1.0" standalone="no"?>
<!DOCTYPE svg PUBLIC "-//W3C//DTD SVG 20010904//EN"
 "http://www.w3.org/TR/2001/REC-SVG-20010904/DTD/svg10.dtd">
<svg version="1.0" xmlns="http://www.w3.org/2000/svg"
 width="1280.000000pt" height="1140.000000pt" viewBox="0 0 1280.000000 1140.000000"
 preserveAspectRatio="xMidYMid meet">
<g transform="translate(0.000000,1140.000000) scale(0.100000,-0.100000)"
fill="#000000" stroke="none">
<path d="M10559 11383 c-11 -13 -14 -82 -16 -332 l-3 -316 -1772 3 c-975 1
-2689 5 -3810 8 l-2036 6 -4 137 c-3 129 -5 139 -33 190 -89 160 -270 175
-375 29 -41 -56 -50 -94 -57 -236 l-6 -122 -1100 0 c-808 0 -1103 -3 -1113
-11 -12 -10 -14 -451 -14 -2820 l0 -2809 23 -14 c28 -17 553 -26 1595 -26
l732 0 0 -474 0 -473 -42 -7 c-86 -14 -170 -64 -189 -114 -12 -31 11 -73 53
-101 l33 -21 -260 0 c-143 0 -549 5 -903 10 l-643 11 -34 -21 c-89 -55 -265
-403 -441 -871 l-47 -124 -18 -350 c-20 -385 -64 -1307 -75 -1561 -7 -175 -5
-184 55 -263 82 -109 469 -375 864 -593 l117 -66 983 -6 c540 -4 2004 -11
3252 -16 1249 -6 3266 -15 4483 -21 l2213 -10 37 21 c113 63 212 104 300 122
157 32 201 64 276 203 92 170 106 370 106 1542 l0 873 -144 294 -144 295 -6
1673 c-3 920 -9 2069 -12 2553 l-6 880 31 -48 c98 -152 228 -96 296 128 32
106 51 199 72 353 24 180 24 646 0 827 -43 319 -103 492 -189 545 -43 26 -77
25 -119 -3 -62 -41 -108 -144 -154 -342 -6 -25 -15 1 -55 150 -27 99 -58 207
-70 240 -44 118 -162 203 -430 308 -147 58 -346 117 -393 117 l-37 0 0 103 c0
97 2 105 24 126 32 30 50 75 42 104 -18 72 -111 127 -215 127 -88 0 -138 -17
-188 -66 -57 -54 -59 -96 -8 -153 l35 -38 0 -102 0 -101 -80 0 -80 0 0 319 c0
277 -2 322 -16 335 -23 24 -265 23 -285 -1z m729 -262 c23 -12 46 -30 52 -40
13 -25 13 -68 0 -76 -6 -4 -10 6 -10 24 0 50 -28 61 -155 61 -128 0 -155 -11
-155 -63 0 -22 -3 -28 -11 -20 -6 6 -9 25 -7 43 8 85 177 127 286 71z m-4025
-3258 l1047 -6 0 -2015 0 -2014 -682 6 c-376 4 -1293 11 -2038 16 -2196 15
-2499 20 -2464 38 155 79 77 194 -161 237 l-95 17 0 119 0 119 155 0 155 0 0
160 0 160 -155 0 -155 0 0 185 0 185 68 0 c168 0 619 22 736 35 131 15 166 28
186 65 14 26 2 49 -44 84 -48 36 -78 91 -120 216 -84 253 -161 716 -221 1330
-27 278 -60 698 -70 880 -3 63 -8 135 -11 159 l-6 44 1414 -6 c777 -4 1884
-10 2461 -14z"/>
</g>
</svg>
