<?xml version="1.0" standalone="no"?>
<!DOCTYPE svg PUBLIC "-//W3C//DTD SVG 20010904//EN"
 "http://www.w3.org/TR/2001/REC-SVG-20010904/DTD/svg10.dtd">
<svg version="1.0" xmlns="http://www.w3.org/2000/svg"
 width="1280.000000pt" height="853.000000pt" viewBox="0 0 1280.000000 853.000000"
 preserveAspectRatio="xMidYMid meet">
<g transform="translate(0.000000,853.000000) scale(0.100000,-0.100000)"
fill="#000000" stroke="none">
<path d="M7579 8512 c5 -10 28 -27 51 -37 22 -10 36 -21 30 -25 -6 -4 -12 -33
-13 -65 l-2 -59 59 -33 c69 -39 84 -57 78 -89 -2 -13 1 -31 8 -39 22 -26 -4
-16 -80 31 -94 58 -116 67 -140 54 -18 -10 -40 -59 -40 -91 0 -12 25 -31 80
-60 65 -33 85 -49 100 -80 37 -71 96 -89 147 -45 24 21 28 32 27 73 0 26 -4
60 -7 75 -6 24 -3 28 28 39 39 14 83 85 65 103 -6 6 -10 20 -10 32 0 13 -10
30 -22 38 -15 11 -18 19 -11 28 9 12 32 72 53 141 l9 27 -210 0 c-200 0 -209
-1 -200 -18z"/>
<path d="M7478 8049 c-14 -8 -38 -65 -38 -91 0 -4 24 -20 53 -34 93 -47 137
-83 137 -109 0 -30 30 -62 67 -71 37 -10 74 13 96 58 16 32 17 43 6 80 -17 58
-26 68 -61 68 -17 0 -42 8 -56 19 -31 22 -138 76 -167 84 -11 4 -28 2 -37 -4z"/>
<path d="M7374 7804 c-24 -58 -16 -74 54 -109 73 -38 98 -59 120 -100 21 -41
41 -54 80 -55 68 0 96 42 85 131 -6 55 -27 74 -75 71 -17 -1 -57 16 -110 48
-103 62 -133 64 -154 14z"/>
<path d="M7297 7599 c-8 -13 -18 -38 -21 -55 -7 -31 -6 -31 89 -79 53 -26 98
-53 100 -59 2 -6 6 -24 9 -39 9 -40 63 -65 106 -47 17 7 37 25 45 41 17 32 20
95 5 104 -5 3 -10 15 -10 25 0 21 -34 44 -55 37 -7 -3 -54 15 -104 39 -119 58
-145 63 -164 33z"/>
<path d="M7215 7350 c-8 -16 -15 -42 -15 -58 0 -27 6 -32 82 -63 68 -28 86
-41 113 -78 51 -73 124 -76 159 -7 16 33 17 43 6 79 -20 68 -24 72 -71 73 -31
0 -69 13 -126 42 -100 51 -127 53 -148 12z"/>
<path d="M7157 7143 c-8 -10 -17 -36 -19 -58 -3 -38 -2 -40 42 -56 118 -44
160 -68 160 -89 0 -31 44 -70 78 -70 68 0 107 73 82 151 -17 49 -29 59 -77 63
-21 2 -78 20 -128 40 -103 41 -116 42 -138 19z"/>
<path d="M7079 6914 c-7 -9 -13 -36 -13 -62 l-1 -46 84 -29 c70 -23 92 -36
127 -74 40 -42 46 -45 79 -40 20 3 43 11 51 18 20 16 36 85 26 106 -5 10 -15
32 -23 48 -14 28 -19 30 -69 31 -37 0 -83 11 -138 32 -95 37 -105 38 -123 16z"/>
<path d="M7015 6687 c-10 -16 -15 -40 -13 -64 2 -32 7 -39 28 -41 14 -2 60
-17 102 -33 66 -26 77 -34 83 -59 7 -33 19 -45 58 -54 53 -13 107 37 107 99 0
56 -59 129 -90 110 -5 -3 -49 7 -98 24 -137 46 -157 48 -177 18z"/>
<path d="M6972 6451 c-8 -4 -18 -27 -23 -50 -11 -51 2 -81 35 -81 54 0 152
-39 186 -75 38 -39 72 -45 119 -20 41 21 57 99 26 125 -8 7 -15 21 -15 31 0
28 -43 45 -76 30 -21 -9 -40 -7 -107 13 -112 33 -130 36 -145 27z"/>
<path d="M6916 6199 c-9 -13 -16 -40 -16 -61 0 -35 2 -37 38 -43 20 -4 68 -16
105 -28 60 -19 71 -26 85 -56 42 -87 162 -44 162 57 0 16 -13 46 -29 68 -26
35 -35 39 -73 40 -24 0 -70 8 -102 17 -33 9 -80 20 -106 23 -42 6 -49 4 -64
-17z"/>
<path d="M6866 5958 c-19 -27 -21 -92 -3 -105 6 -6 30 -13 52 -17 80 -12 117
-28 157 -67 24 -24 50 -39 65 -39 31 0 79 25 87 45 10 26 7 73 -6 98 -6 12
-14 28 -18 36 -12 27 -37 36 -68 25 -23 -9 -47 -5 -127 18 -120 34 -120 34
-139 6z"/>
<path d="M6822 5727 c-6 -7 -14 -31 -18 -53 -7 -50 2 -58 81 -74 72 -15 103
-30 143 -70 38 -38 84 -43 128 -15 28 18 41 91 20 114 -7 9 -16 25 -18 36 -5
28 -44 45 -78 33 -22 -7 -47 -3 -112 16 -94 29 -130 32 -146 13z"/>
<path d="M6762 5485 c-7 -14 -12 -41 -12 -60 0 -32 3 -35 38 -40 20 -4 68 -17
106 -28 59 -19 71 -26 82 -54 16 -36 18 -38 61 -47 44 -10 92 33 99 89 5 34 1
46 -25 80 -26 35 -35 40 -73 41 -24 0 -79 10 -123 22 -109 29 -139 29 -153 -3z"/>
<path d="M6716 5242 c-14 -23 -17 -88 -4 -103 7 -9 48 -23 96 -32 70 -13 89
-21 123 -51 49 -45 97 -49 134 -11 29 28 35 95 11 115 -8 6 -16 21 -18 33 -4
29 -49 45 -80 28 -19 -10 -39 -8 -111 9 -94 21 -143 25 -151 12z"/>
<path d="M6677 5012 c-11 -12 -17 -36 -17 -64 l0 -46 48 -6 c75 -11 172 -46
172 -62 0 -26 47 -64 80 -64 68 0 112 95 71 150 -11 16 -21 34 -21 39 0 17
-23 25 -70 27 -25 0 -89 10 -144 22 -54 12 -99 22 -101 22 -1 0 -9 -8 -18 -18z"/>
<path d="M6624 4765 c-29 -70 -23 -80 68 -111 67 -22 89 -35 128 -75 54 -56
89 -63 133 -29 30 23 46 85 28 103 -6 6 -11 21 -11 32 0 36 -34 58 -74 51 -27
-5 -55 1 -122 29 -113 45 -131 45 -150 0z"/>
<path d="M6587 4585 c-18 -17 -32 -88 -19 -93 5 -1 47 -24 93 -51 74 -42 84
-51 87 -79 2 -19 13 -39 29 -52 74 -58 167 22 139 120 -13 47 -35 72 -61 68
-12 -1 -32 5 -46 13 -49 32 -169 89 -188 89 -11 0 -26 -7 -34 -15z"/>
<path d="M6539 4373 c-28 -4 -39 -25 -39 -76 0 -23 7 -31 38 -43 50 -21 122
-67 122 -78 0 -5 -7 -17 -15 -26 -20 -22 -11 -45 30 -70 50 -31 88 -26 123 15
41 50 56 104 36 126 -20 23 -223 145 -249 151 -11 3 -32 3 -46 1z"/>
<path d="M6437 4148 c-9 -7 -23 -26 -31 -42 -17 -33 -7 -56 24 -56 21 0 86
-43 110 -73 14 -17 17 -33 13 -73 -5 -45 -3 -53 18 -68 48 -33 112 -11 149 51
34 58 16 143 -30 143 -10 0 -23 7 -30 15 -20 24 -168 115 -188 115 -10 0 -26
-6 -35 -12z"/>
<path d="M12263 4109 c-21 -6 -39 -21 -49 -40 -15 -30 -15 -34 20 -110 39 -84
42 -106 25 -174 -6 -25 -8 -56 -5 -70 5 -21 12 -25 46 -25 68 0 87 13 99 68 5
27 13 80 16 118 9 99 11 101 42 70 22 -23 28 -38 31 -90 3 -46 0 -72 -13 -95
-9 -18 -14 -39 -11 -47 6 -16 65 -19 114 -5 39 12 42 0 7 -41 -49 -58 -27 -72
120 -73 l90 0 3 202 c2 198 2 202 -19 214 -28 14 -96 14 -114 -1 -11 -9 -12
-7 -9 8 8 28 -67 92 -109 93 -59 2 -72 -2 -95 -31 l-24 -29 -26 30 c-30 34
-85 45 -139 28z"/>
<path d="M12010 4073 c-39 -12 -63 -30 -76 -55 -20 -39 -17 -65 9 -83 13 -8
42 -38 65 -66 41 -51 42 -53 42 -130 0 -89 -1 -88 73 -63 53 18 68 46 46 86
-7 14 -13 69 -15 138 -1 63 -2 118 -3 122 -1 10 -97 58 -113 57 -7 0 -20 -3
-28 -6z"/>
<path d="M11705 3995 c-93 -33 -88 -102 13 -199 49 -47 55 -58 68 -121 8 -38
19 -74 23 -78 12 -12 97 27 109 50 10 20 5 43 -20 88 -23 43 -40 142 -28 165
17 33 -5 69 -56 90 -54 23 -57 24 -109 5z"/>
<path d="M6318 3943 c-18 -21 -38 -58 -38 -71 0 -5 13 -15 30 -22 16 -7 48
-32 71 -57 39 -43 40 -46 34 -93 -6 -44 -4 -52 19 -75 38 -37 86 -34 134 9 34
32 37 38 35 87 -1 43 -6 57 -25 71 -12 10 -41 36 -63 57 -62 61 -134 111 -159
111 -13 0 -30 -8 -38 -17z"/>
<path d="M11398 3874 c-35 -23 -38 -28 -38 -73 0 -53 6 -61 83 -105 38 -22 54
-39 73 -79 13 -29 24 -61 24 -72 1 -36 15 -48 49 -40 30 6 71 46 71 70 0 6
-20 56 -44 110 -33 72 -43 106 -39 129 6 36 -12 57 -66 75 -49 16 -71 13 -113
-15z"/>
<path d="M11123 3764 c-29 -22 -33 -31 -33 -71 0 -41 5 -51 40 -85 23 -21 50
-38 62 -38 28 0 82 -60 103 -115 10 -25 22 -45 27 -45 5 0 26 9 48 20 62 32
61 48 -13 158 -55 81 -65 102 -60 128 6 37 -6 47 -69 63 -64 15 -68 14 -105
-15z"/>
<path d="M6188 3760 c-9 -6 -26 -25 -38 -44 l-21 -34 77 -77 c71 -72 76 -79
71 -111 -5 -27 0 -40 20 -64 36 -43 83 -42 129 4 32 32 34 39 31 85 -5 55 -20
81 -48 81 -10 0 -28 13 -40 29 -23 31 -146 141 -157 141 -4 0 -15 -5 -24 -10z"/>
<path d="M10871 3620 c-42 -31 -43 -33 -38 -77 6 -54 41 -95 96 -111 48 -15
66 -35 94 -108 13 -32 30 -60 38 -62 21 -4 80 39 90 65 6 18 -5 42 -56 120
-50 77 -62 101 -54 115 20 37 -18 75 -82 84 -39 5 -49 2 -88 -26z"/>
<path d="M6001 3525 c-39 -45 -39 -58 2 -92 74 -64 104 -102 116 -146 13 -54
41 -77 91 -77 53 0 83 35 87 103 3 61 -10 87 -47 89 -17 1 -53 28 -106 80 -45
43 -88 78 -97 78 -8 0 -29 -16 -46 -35z"/>
<path d="M10638 3487 c-28 -23 -48 -57 -48 -79 0 -7 22 -37 48 -66 40 -43 54
-52 78 -50 40 3 50 -5 90 -68 46 -71 63 -80 105 -51 59 39 52 68 -37 165 -60
65 -75 87 -70 104 3 15 -2 30 -16 45 -30 32 -112 32 -150 0z"/>
<path d="M5825 3319 c-19 -17 -35 -35 -35 -40 0 -5 33 -41 74 -81 40 -40 85
-92 100 -115 48 -77 83 -86 139 -35 23 22 27 34 27 79 0 49 -2 54 -31 68 -17
9 -36 14 -42 12 -7 -2 -48 29 -92 70 -44 40 -85 73 -92 73 -7 0 -28 -14 -48
-31z"/>
<path d="M10414 3316 c-38 -38 -41 -53 -18 -102 17 -36 63 -66 121 -79 23 -4
45 -21 70 -53 20 -26 45 -55 56 -65 18 -16 22 -16 46 -1 72 45 67 70 -29 168
-57 59 -80 90 -80 108 0 38 -29 58 -84 58 -41 0 -53 -5 -82 -34z"/>
<path d="M10235 3181 c-11 -5 -33 -21 -48 -37 -22 -21 -27 -34 -22 -53 15 -61
75 -111 133 -111 31 0 62 -28 112 -103 14 -20 30 -37 36 -37 6 0 28 15 50 34
l39 33 -27 39 c-15 22 -52 64 -83 94 -43 43 -55 61 -55 86 0 17 -8 38 -18 47
-20 18 -82 22 -117 8z"/>
<path d="M5652 3117 c-18 -18 -32 -37 -32 -42 0 -6 35 -46 78 -90 42 -44 84
-94 92 -110 35 -72 70 -83 119 -37 43 39 53 110 20 141 -12 11 -35 21 -50 21
-21 0 -45 18 -101 75 -41 41 -78 75 -84 75 -5 0 -24 -15 -42 -33z"/>
<path d="M10018 3025 c-20 -14 -38 -33 -40 -42 -8 -38 12 -89 47 -121 32 -30
41 -33 74 -27 34 6 41 3 68 -28 17 -20 39 -49 49 -66 11 -18 27 -31 38 -31 27
0 86 42 86 61 0 22 -47 84 -114 149 -41 40 -54 59 -50 73 18 56 -90 78 -158
32z"/>
<path d="M5466 2916 c-14 -19 -26 -38 -26 -41 0 -4 36 -46 81 -93 45 -48 88
-102 95 -120 26 -58 95 -68 127 -18 20 30 25 110 8 130 -8 9 -28 16 -46 16
-27 0 -40 10 -85 63 -95 111 -111 118 -154 63z"/>
<path d="M9844 2859 c-31 -20 -53 -55 -54 -84 0 -12 23 -43 54 -74 46 -45 57
-51 73 -42 17 8 25 5 50 -22 16 -18 42 -52 57 -75 24 -39 31 -43 54 -37 37 9
72 44 72 72 0 15 -26 50 -76 103 -68 71 -76 83 -71 109 8 41 -19 63 -82 66
-34 2 -58 -3 -77 -16z"/>
<path d="M5313 2774 c-7 -3 -22 -21 -33 -39 -25 -40 -17 -64 28 -90 38 -23
100 -109 113 -159 22 -82 62 -97 122 -43 32 28 37 38 39 81 2 40 -2 52 -21 67
-12 10 -28 16 -35 13 -7 -3 -30 16 -51 43 -92 115 -125 141 -162 127z"/>
<path d="M9674 2720 c-35 -14 -75 -69 -68 -94 16 -56 68 -100 131 -112 30 -6
47 -21 128 -116 8 -10 19 -18 25 -18 16 0 80 61 80 77 0 8 -39 55 -86 104 -57
59 -84 95 -82 108 5 31 -30 61 -71 60 -20 0 -45 -4 -57 -9z"/>
<path d="M5116 2559 c-14 -17 -26 -35 -26 -41 0 -6 26 -38 58 -72 48 -52 60
-73 72 -122 15 -62 46 -104 78 -104 10 0 37 16 59 35 31 26 42 44 47 76 8 51
-13 89 -48 89 -14 0 -30 10 -39 24 -9 13 -41 51 -73 85 -65 71 -89 76 -128 30z"/>
<path d="M9500 2543 c-34 -12 -70 -57 -70 -86 0 -45 76 -117 122 -117 42 0 53
-9 108 -82 23 -32 45 -58 48 -58 18 0 82 56 82 71 0 10 -36 58 -80 106 -62 67
-80 93 -76 109 9 34 -27 64 -77 63 -23 0 -49 -3 -57 -6z"/>
<path d="M4951 2394 c-40 -33 -39 -63 2 -89 29 -18 72 -83 62 -93 -2 -3 -39
23 -81 57 -42 33 -82 61 -88 62 -6 0 -33 4 -61 9 -45 7 -58 5 -129 -27 -120
-52 -132 -63 -156 -144 -14 -45 -42 -100 -80 -157 -91 -134 -106 -147 -310
-258 -121 -66 -460 -290 -650 -429 -72 -52 -160 -114 -197 -137 -38 -23 -85
-55 -106 -71 -35 -27 -38 -34 -35 -66 3 -20 8 -45 12 -56 l8 -20 -16 20 c-50
63 -55 66 -89 49 -18 -9 -42 -25 -54 -37 l-22 -20 43 -48 c24 -27 48 -61 53
-76 13 -37 -2 -93 -24 -93 -9 0 -24 -7 -34 -15 -15 -15 -17 -14 -23 10 -4 14
-21 49 -38 78 -63 105 -86 116 -151 72 -45 -31 -46 -47 -7 -75 17 -12 40 -40
51 -62 27 -53 20 -97 -21 -120 -29 -17 -30 -16 -48 10 -10 15 -33 52 -50 83
-44 77 -87 96 -136 58 -24 -19 -36 -59 -18 -59 5 0 25 -24 45 -53 35 -51 46
-97 29 -123 -11 -17 -56 -38 -59 -28 -2 5 -25 44 -53 87 -60 94 -84 108 -134
78 -48 -30 -56 -59 -22 -84 32 -23 76 -96 76 -125 0 -30 -10 -52 -25 -52 -7 0
-18 -7 -25 -15 -17 -21 -22 -15 -73 73 -25 42 -54 85 -66 96 -19 17 -23 17
-58 3 -21 -8 -45 -26 -53 -40 -14 -24 -13 -28 12 -54 51 -54 78 -105 78 -144
0 -32 -4 -39 -19 -39 -15 0 -40 38 -103 150 -60 110 -89 152 -105 156 -23 6
-185 -77 -378 -193 -95 -58 -115 -76 -115 -105 0 -10 39 -90 87 -178 l88 -160
387 0 388 0 0 24 c0 14 -21 55 -46 93 -62 92 -68 104 -50 97 9 -3 27 6 43 22
l27 27 37 -42 c21 -23 48 -66 60 -96 24 -59 33 -63 88 -44 63 22 60 62 -13
170 -20 30 -36 56 -36 59 0 4 14 16 30 29 l31 22 37 -30 c21 -16 48 -51 61
-78 37 -74 37 -74 84 -56 46 17 67 38 67 64 0 9 -25 50 -55 92 -30 41 -55 78
-55 81 0 3 8 6 19 6 10 0 24 7 31 15 7 9 16 12 19 8 3 -4 20 -15 36 -23 25
-13 64 -72 87 -133 6 -15 99 25 107 47 11 28 6 41 -41 103 -21 29 -41 59 -43
65 -3 7 11 26 30 41 19 15 35 23 35 18 0 -6 15 -17 33 -24 25 -11 39 -28 62
-78 16 -35 30 -66 32 -68 5 -8 102 31 106 44 10 23 -5 58 -55 129 -26 38 -48
72 -48 77 0 4 15 16 34 27 l35 21 66 -90 c70 -94 89 -106 151 -96 19 3 150 47
292 98 141 50 350 122 463 159 165 55 247 89 419 175 l215 108 75 -6 c42 -3
108 -16 149 -30 l72 -26 120 60 c122 61 131 69 153 142 3 10 15 17 29 17 52 0
60 47 33 195 -14 75 -14 81 3 93 12 8 17 21 13 37 -5 30 -67 86 -85 79 -19 -7
-71 134 -57 151 12 15 -80 173 -97 168 -7 -3 -32 21 -56 52 l-45 57 39 39 c34
34 37 42 32 76 -6 42 -28 73 -52 74 -9 0 -41 32 -71 70 -47 60 -103 109 -123
109 -3 0 -19 -12 -36 -26z m-1245 -1536 c26 -52 25 -61 -13 -72 -17 -6 -28 2
-57 40 -20 26 -36 50 -36 54 0 9 63 38 73 33 4 -2 19 -27 33 -55z m-185 -90
c16 -14 18 -18 6 -18 -25 0 -71 45 -62 60 6 10 11 9 22 -6 7 -10 23 -27 34
-36z"/>
<path d="M9302 2344 c-22 -13 -43 -31 -46 -40 -13 -34 6 -86 47 -125 35 -35
43 -38 76 -33 34 5 40 2 71 -33 19 -22 44 -52 55 -67 17 -24 23 -26 45 -17 14
5 36 19 49 29 34 27 22 53 -71 149 -63 64 -79 86 -73 102 4 13 -1 27 -14 40
-27 27 -88 25 -139 -5z"/>
<path d="M9105 2166 c-50 -48 -47 -78 15 -143 43 -46 52 -52 74 -44 27 11 49
-8 105 -91 18 -27 36 -48 42 -48 20 0 69 31 79 50 17 32 3 59 -73 138 -63 64
-71 77 -69 107 2 28 -2 37 -25 48 -15 8 -47 15 -70 15 -35 1 -49 -5 -78 -32z"/>
<path d="M8931 2001 c-39 -32 -45 -73 -17 -116 22 -33 74 -65 106 -65 18 0 43
-19 86 -65 34 -36 69 -65 78 -65 20 0 76 52 76 70 0 6 -38 51 -85 100 -69 71
-85 94 -85 119 0 37 -22 51 -82 51 -32 0 -51 -8 -77 -29z"/>
<path d="M8777 1860 c-21 -4 -51 -20 -68 -36 -25 -24 -29 -34 -25 -59 9 -42
73 -105 108 -105 45 0 71 -18 117 -81 24 -32 51 -59 60 -59 9 0 31 13 49 30
41 37 37 46 -63 150 -58 61 -72 81 -69 100 8 49 -37 74 -109 60z"/>
<path d="M8523 1690 c-17 -10 -37 -28 -43 -40 -16 -30 3 -89 41 -128 26 -27
37 -32 60 -27 34 8 56 -12 100 -90 17 -30 37 -55 45 -55 20 0 68 25 83 44 17
20 -10 71 -83 161 -45 54 -55 72 -50 92 15 58 -83 86 -153 43z"/>
<path d="M5594 1575 c-29 -20 -54 -75 -54 -119 0 -26 7 -42 25 -58 29 -25 31
-50 9 -130 -19 -68 -13 -82 44 -98 59 -16 73 9 93 163 9 70 16 93 35 112 13
13 24 30 24 38 0 23 -63 84 -99 96 -44 14 -52 14 -77 -4z"/>
<path d="M8281 1541 c-43 -40 -40 -72 10 -138 36 -48 44 -54 72 -51 29 3 34
-2 63 -52 18 -30 41 -66 52 -79 18 -23 21 -24 51 -11 18 7 40 24 48 37 20 30
11 51 -60 141 -69 87 -70 88 -57 112 9 17 6 25 -14 45 -21 21 -35 25 -79 25
-47 0 -60 -4 -86 -29z"/>
<path d="M5852 1465 c-36 -46 -44 -93 -26 -145 l16 -46 -36 -72 c-20 -39 -36
-76 -36 -82 0 -5 18 -19 40 -30 29 -15 45 -18 59 -11 15 8 43 72 91 204 5 15
16 27 25 27 22 0 48 46 41 73 -3 13 -20 40 -38 61 -25 28 -43 39 -74 43 -36 5
-43 2 -62 -22z"/>
<path d="M8079 1427 c-31 -21 -34 -28 -33 -70 0 -54 25 -86 87 -118 30 -16 45
-34 70 -86 41 -85 56 -94 105 -68 21 11 38 29 40 40 1 11 -24 67 -57 125 -41
71 -57 109 -51 119 12 23 -9 59 -43 71 -47 16 -81 12 -118 -13z"/>
<path d="M6129 1357 c-37 -29 -51 -66 -50 -134 1 -61 -3 -74 -34 -124 -19 -32
-35 -65 -35 -76 0 -23 48 -53 84 -53 24 0 32 11 79 107 38 79 59 111 79 121
37 17 43 44 19 96 -28 64 -99 96 -142 63z"/>
<path d="M7885 1347 c-63 -20 -80 -61 -53 -124 15 -35 48 -73 63 -73 24 0 54
-47 70 -110 9 -36 20 -69 25 -74 14 -14 99 14 105 34 5 16 -22 98 -63 189 -17
38 -18 47 -7 65 15 25 5 60 -22 74 -39 21 -88 29 -118 19z"/>
<path d="M6373 1252 c-10 -9 -27 -43 -37 -75 -18 -53 -18 -58 -3 -75 24 -26
22 -38 -20 -119 -32 -63 -35 -74 -22 -89 23 -28 69 -43 96 -31 22 10 29 24 75
157 18 51 28 65 47 70 39 9 47 51 20 106 -35 69 -115 98 -156 56z"/>
<path d="M7623 1255 c-31 -22 -39 -89 -18 -143 10 -23 20 -42 24 -43 56 -7 67
-21 82 -114 13 -82 23 -90 89 -76 l35 7 -1 60 c-1 33 -13 92 -27 133 -21 64
-23 77 -11 89 15 15 18 41 6 58 -26 39 -139 57 -179 29z"/>
<path d="M6645 1198 c-56 -44 -74 -134 -33 -167 20 -17 21 -21 8 -67 -7 -27
-19 -61 -27 -76 -7 -15 -13 -34 -13 -42 0 -18 33 -42 72 -51 23 -6 30 -2 47
26 12 19 31 78 43 131 19 79 27 98 42 100 33 5 40 50 14 91 -42 64 -110 89
-153 55z"/>
<path d="M7394 1208 c-39 -18 -46 -46 -31 -118 10 -52 18 -67 37 -77 31 -15
38 -38 39 -126 1 -60 3 -68 24 -76 12 -5 37 -6 55 -3 53 7 59 33 37 157 -17
98 -17 107 -1 123 17 20 21 49 8 69 -4 6 -24 23 -45 37 -40 27 -86 32 -123 14z"/>
<path d="M7130 1153 c-31 -39 -23 -106 19 -169 29 -44 32 -55 29 -119 -1 -39
2 -76 6 -83 11 -18 91 -15 106 3 10 12 11 45 6 137 -6 106 -5 123 10 140 40
43 -31 118 -112 118 -35 0 -47 -5 -64 -27z"/>
<path d="M6875 1146 c-25 -38 -24 -119 3 -155 26 -35 28 -74 7 -151 -8 -30
-11 -58 -7 -62 4 -4 26 -11 50 -16 66 -15 71 -6 88 173 4 50 11 74 24 85 11 8
22 27 25 42 6 22 0 33 -34 67 -37 37 -46 41 -91 41 -41 0 -52 -4 -65 -24z"/>
</g>
</svg>
